<?xml version="1.0" standalone="no"?>
<!DOCTYPE svg PUBLIC "-//W3C//DTD SVG 1.1//EN" "http://www.w3.org/Graphics/SVG/1.1/DTD/svg11.dtd" >
<svg>
<metadata>
Created by FontForge 20110222 at Mon May 13 03:34:16 2013
 By Orthosie Webhosting
2001 Erik Spiekermann, ParaType, published by FontShop International for the FontFont library.
</metadata>
<defs>
<font id="MetaMediumCyrLFRomanRegular" horiz-adv-x="560" >
  <font-face 
    font-family="MetaMediumCyrLFRomanRegular"
    font-weight="400"
    font-stretch="normal"
    units-per-em="1000"
    panose-1="2 12 6 6 3 5 3 2 2 4"
    ascent="740"
    descent="-260"
    x-height="506"
    cap-height="692"
    bbox="-20 -216 1178 915"
    underline-thickness="50"
    underline-position="-75"
    unicode-range="U+0020-2122"
  />
<missing-glyph horiz-adv-x="500" 
d="M442 8v496h-384v-496h384zM50 512h400v-512h-400v512z" />
    <glyph glyph-name=".notdef" horiz-adv-x="500" 
d="M442 8v496h-384v-496h384zM50 512h400v-512h-400v512z" />
    <glyph glyph-name=".null" horiz-adv-x="0" 
 />
    <glyph glyph-name="nonmarkingreturn" horiz-adv-x="333" 
 />
    <glyph glyph-name="space" unicode=" " horiz-adv-x="225" 
 />
    <glyph glyph-name="space" unicode="&#xa0;" horiz-adv-x="225" 
 />
    <glyph glyph-name="exclam" unicode="!" horiz-adv-x="286" 
d="M216 64q0 -31 -22 -52.5t-52 -21.5q-31 0 -51.5 21.5t-20.5 52.5q0 30 21 51.5t52 21.5q30 0 51.5 -21.5t21.5 -51.5zM184 212h-84l-25 475l133 19z" />
    <glyph glyph-name="quotedbl" unicode="&#x22;" horiz-adv-x="443" 
d="M70 442v267h102v-267h-102zM271 442v267h102v-267h-102z" />
    <glyph glyph-name="numbersign" unicode="#" horiz-adv-x="556" 
d="M231 425l-20 -141h113l19 141h-112zM426 425l-20 -141h90v-77h-100l-29 -207h-83l29 207h-112l-29 -207h-82l28 207h-88v77h99l19 141h-89v77h100l28 206h83l-29 -206h112l29 206h82l-28 -206h90v-77h-100z" />
    <glyph glyph-name="dollar" unicode="$" horiz-adv-x="579" 
d="M539 210q0 -48 -18.5 -87t-49 -67t-71 -45t-83.5 -22v-88h-72v87q-56 2 -108 18t-97 42l44 89q44 -25 88 -40.5t104 -15.5q34 0 59 8.5t41.5 23.5t24.5 35t8 42q0 75 -95 103l-84 25q-51 15 -81 33.5t-49 44.5q-33 45 -33 107q0 85 53 136t144 64v76h72v-76
q51 -3 99.5 -20.5t87.5 -45.5l-52 -81q-44 26 -80.5 39.5t-78.5 13.5q-61 0 -89.5 -24t-28.5 -64q0 -31 19 -52.5t61 -32.5l94 -26q82 -22 125 -73q23 -26 34.5 -58.5t11.5 -68.5z" />
    <glyph glyph-name="percent" unicode="%" horiz-adv-x="834" 
d="M272 527q0 58 -18.5 83.5t-58.5 25.5q-39 0 -57 -26t-18 -78q0 -60 18.5 -85t58.5 -25q39 0 57 25.5t18 79.5zM713 160q0 60 -19 84.5t-58 24.5q-41 0 -58 -27t-17 -76q0 -61 18 -85.5t59 -24.5q39 0 57 25t18 79zM363 528q0 -79 -45 -124q-23 -23 -52.5 -34.5
t-69.5 -11.5q-78 0 -122 46t-44 125q0 39 12 70.5t33.5 54t52 34.5t67.5 12q78 0 123 -44.5t45 -127.5zM282 0h-79l350 690h80zM804 162q0 -76 -44 -123.5t-123 -47.5q-78 0 -122 46t-44 125q0 39 12 70.5t33.5 54t52 34.5t67.5 12q80 0 124 -45.5t44 -125.5z" />
    <glyph glyph-name="ampersand" unicode="&#x26;" horiz-adv-x="689" 
d="M242 289q-74 -41 -74 -113q0 -51 33.5 -80t94.5 -29q42 0 73.5 12.5t50.5 35.5zM362 507q0 35 -21.5 57t-55.5 22q-33 0 -55 -19.5t-22 -56.5q0 -12 3.5 -24t11.5 -24.5t22 -28t35 -34.5q82 41 82 108zM538 0l-53 53q-32 -32 -82 -49t-111 -17q-119 0 -180.5 50.5
t-61.5 135.5q0 64 35 104t98 70q-25 20 -42 38t-27.5 36t-15 37.5t-4.5 41.5q0 35 14 65t39 51.5t60 34t77 12.5q41 0 76.5 -11t61.5 -31t41 -49t15 -65q0 -58 -37 -96t-100 -67l136 -132q10 25 12 54.5t2 67.5h92q0 -36 -2 -64t-6 -50.5t-10.5 -42t-15.5 -38.5l140 -139
h-151z" />
    <glyph glyph-name="quotesingle" unicode="'" horiz-adv-x="242" 
d="M70 442v267h102v-267h-102z" />
    <glyph glyph-name="parenleft" unicode="(" horiz-adv-x="303" 
d="M294 -163q-69 25 -121 78t-82 127q-23 57 -32 131t-9 149q0 69 8 128.5t27 107.5q26 67 76.5 125.5t131.5 94.5l28 -61q-32 -22 -53 -41.5t-35 -37.5t-22 -34t-14 -30q-11 -24 -17.5 -55t-11 -64t-6 -67t-1.5 -64q0 -19 1 -46t3 -57.5t6.5 -61t10.5 -56.5q8 -33 19 -63
t27.5 -56.5t39.5 -48.5t55 -38z" />
    <glyph glyph-name="parenright" unicode=")" horiz-adv-x="304" 
d="M254 310q0 -29 -2 -61.5t-6 -64t-10 -61.5t-14 -55q-26 -78 -81 -139t-132 -92l-29 61q57 32 88 78.5t47 93.5q9 26 14 56.5t8 62t4 63t1 58.5q0 30 -1 54t-3.5 46.5t-6 45t-8.5 50.5q-13 68 -44.5 120.5t-96.5 90.5l28 61q67 -26 117.5 -77.5t81.5 -116.5
q25 -53 35 -126t10 -148z" />
    <glyph glyph-name="asterisk" unicode="*" horiz-adv-x="456" 
d="M295 486l86 -118l-67 -51l-87 121l-84 -118l-66 50l86 116l-138 47l27 79l136 -48v144h82v-144l136 46l25 -79z" />
    <glyph glyph-name="plus" unicode="+" horiz-adv-x="600" 
d="M351 232v-200h-102v200h-199v104h199v200h102v-200h199v-104h-199z" />
    <glyph glyph-name="comma" unicode="," horiz-adv-x="282" 
d="M222 35q0 -63 -37.5 -111t-94.5 -68l-40 50q31 10 49.5 30t18.5 41q0 5 -5.5 10.5t-16.5 10.5q-20 8 -31.5 25.5t-11.5 41.5q0 34 23 57t56 23q39 0 64.5 -30.5t25.5 -79.5z" />
    <glyph glyph-name="glyph159" unicode="-" horiz-adv-x="319" 
d="M50 221v102h219v-102h-219z" />
    <glyph glyph-name="glyph159" unicode="&#xad;" horiz-adv-x="319" 
d="M50 221v102h219v-102h-219z" />
    <glyph glyph-name="period" unicode="." horiz-adv-x="277" 
d="M217 67q0 -34 -23 -58t-55 -24q-33 0 -56 24t-23 58q0 33 22.5 56t54.5 23q33 0 56.5 -23t23.5 -56z" />
    <glyph glyph-name="slash" unicode="/" horiz-adv-x="440" 
d="M126 -151h-76l263 913h77z" />
    <glyph glyph-name="zero" unicode="0" 
d="M392 328q0 49 -3.5 85t-11.5 68q-14 59 -39 83.5t-58 24.5q-29 0 -51.5 -22t-36.5 -62q-23 -62 -23 -171q0 -98 14 -156q14 -59 39 -85t57 -26t56 25t38 69q10 32 14.5 74t4.5 93zM514 330q0 -78 -17 -141.5t-48.5 -108.5t-75 -70t-95.5 -25q-44 0 -78.5 16t-60 42.5
t-43.5 62t-29 74t-16 78t-5 75.5q0 74 17.5 136t49 107t74 70.5t92.5 25.5q67 0 112 -33t72.5 -83.5t39 -111t11.5 -114.5z" />
    <glyph glyph-name="one" unicode="1" 
d="M133 0v89h116v444q-8 -5 -28 -17t-40 -22t-43.5 -20t-32.5 -13l-27 59l201 141h78v-572h93v-89h-317z" />
    <glyph glyph-name="two" unicode="2" 
d="M482 0h-408v73q15 12 34 30t40.5 39t43.5 43.5t42 45.5q37 40 61.5 74t39.5 63t21.5 53.5t6.5 46.5q0 54 -29 80.5t-71 26.5q-44 0 -79 -20t-67 -45l-56 65q55 48 112 72.5t124 24.5q42 0 77 -14t60.5 -39.5t39.5 -60t14 -75.5q0 -49 -25.5 -101.5t-68.5 -103.5
q-20 -25 -48.5 -53.5t-57.5 -58.5l-26 -26t-24.5 -24t-20 -18.5t-13.5 -10.5q15 2 43 3t54 1h205z" />
    <glyph glyph-name="three" unicode="3" 
d="M493 202q0 -66 -43.5 -118.5t-113.5 -81.5q-38 -16 -86.5 -24.5t-103.5 -8.5q-20 0 -33 0.5t-35 3.5l-26 76q19 -4 31 -5t34 -1q39 0 83 8.5t80.5 28t61 52t24.5 80.5q0 38 -15.5 58.5t-39.5 30.5t-53.5 11.5t-57.5 1.5h-33v87h58q22 0 45 3.5t42 13t31 27t12 45.5
q0 39 -26 64t-74 25q-47 0 -81 -17t-70 -42l-56 68q22 18 49 33.5t56.5 27t59.5 17.5t59 6q45 0 82.5 -13t64.5 -35.5t42 -53.5t15 -67q0 -59 -29.5 -94t-80.5 -54q26 -8 49 -22t40.5 -33.5t27.5 -44.5t10 -53z" />
    <glyph glyph-name="four" unicode="4" 
d="M466 125q-13 0 -21 1l-8 1l1.5 -10.5t1.5 -27.5v-104l-105 -19v130q0 10 0.5 20.5l0.5 10.5l-9.5 -1t-25.5 -1h-262v78l212 460h116l-170 -369q-8 -17 -18 -36t-16.5 -30t-7.5 -13l9 1t19 1h132q9 0 16 -0.5l7 -0.5l-0.5 9t-0.5 13q0 18 1.5 44.5t3.5 54.5l12 143l86 22
v-263q0 -3 -0.5 -13.5l-0.5 -10.5l10 1t17 1h49v-92h-49z" />
    <glyph glyph-name="five" unicode="5" 
d="M485 215q0 -66 -36 -121.5t-96 -86.5q-36 -19 -80.5 -29t-91.5 -10q-23 0 -37.5 1.5t-37.5 6.5l-23 82q26 -8 44 -11t42 -3q42 0 78 12t62.5 33.5t41 51t14.5 64.5q0 58 -35 87.5t-92 29.5q-66 0 -137 -26l32 361h322l-17 -93h-203l-16 -162q20 3 30 4t26 1
q43 0 81.5 -13t67 -38t45 -60.5t16.5 -80.5z" />
    <glyph glyph-name="six" unicode="6" 
d="M394 206q0 24 -6.5 46t-19.5 38.5t-32.5 26t-46.5 9.5q-55 0 -118 -42q-1 -13 -2 -27.5t-1 -28.5q0 -28 5.5 -56t18.5 -51t35 -37.5t55 -14.5q52 0 82 37t30 100zM513 208q0 -47 -17.5 -88t-48 -71t-72.5 -47t-90 -17q-53 0 -97 20t-75.5 57t-49 87.5t-17.5 112.5
q0 47 12 92.5t33.5 87.5t51 79t64.5 67q47 41 104 71.5t117 47.5l25 -76q-60 -22 -112.5 -53t-92.5 -78q-14 -16 -23.5 -30t-17 -29t-13.5 -31.5t-12 -37.5q23 20 55.5 30.5t68.5 10.5q43 0 81 -15.5t66 -43t44 -65t16 -81.5z" />
    <glyph glyph-name="seven" unicode="7" 
d="M500 556q-46 -69 -89 -141t-79 -147q-33 -69 -58 -139.5t-34 -137.5l-126 -32q24 105 62.5 204.5t89.5 194.5q38 71 70 119.5t63 84.5l-21 -1t-42 -1h-264l25 97h424z" />
    <glyph glyph-name="eight" unicode="8" 
d="M402 163q0 46 -33 72q-19 15 -49.5 31t-79.5 36q-37 -20 -60.5 -50t-23.5 -74q0 -53 34.5 -84t93.5 -31q53 0 85.5 27.5t32.5 72.5zM381 507q0 40 -27.5 62.5t-78.5 22.5q-48 0 -77 -24t-29 -63q0 -22 11.5 -39t29 -30.5t37.5 -23.5t38 -17q16 8 33.5 19t31 24.5
t22.5 30.5t9 38zM523 182q0 -48 -23 -85.5t-59 -63t-80.5 -39t-87.5 -13.5t-85.5 11t-76 34t-54 58.5t-20.5 85.5q0 61 36 106.5t92 65.5q-46 19 -76.5 60.5t-30.5 92.5q0 48 20 81.5t52.5 54.5t73 31t81.5 10q47 0 86.5 -12t67.5 -34t43.5 -52t15.5 -67q0 -31 -11 -55
t-29.5 -43t-42.5 -32.5t-50 -23.5q73 -30 115.5 -69.5t42.5 -101.5z" />
    <glyph glyph-name="nine" unicode="9" 
d="M393 433q0 72 -30.5 113t-81.5 41q-50 0 -80 -38.5t-30 -103.5q0 -61 29.5 -96.5t80.5 -35.5q29 0 52.5 10.5t49.5 33.5q6 22 8 38t2 38zM513 414q0 -94 -38.5 -178.5t-112.5 -153.5q-50 -47 -114.5 -84t-131.5 -51l-58 67q23 5 41 10.5t40 16.5q59 27 111.5 69.5
t84.5 95.5q13 21 24 48q-25 -14 -49.5 -20.5t-50.5 -6.5q-45 0 -83 16.5t-66 45t-44 68t-16 86.5q0 49 18 91.5t49.5 73t74.5 48t93 17.5q57 0 99.5 -20.5t71 -56t43 -82.5t14.5 -100z" />
    <glyph glyph-name="colon" unicode=":" horiz-adv-x="295" 
d="M224 63q0 -32 -23 -54.5t-55 -22.5t-54 22.5t-22 54.5q0 33 22.5 57t55.5 23q32 0 54 -23.5t22 -56.5zM225 372q0 -33 -23 -55.5t-55 -22.5t-54 22t-22 54q0 33 22.5 56t54.5 24q16 0 30 -6t24.5 -16.5t16.5 -25t6 -30.5z" />
    <glyph glyph-name="semicolon" unicode=";" horiz-adv-x="313" 
d="M243 32q0 -30 -10 -58t-28 -51.5t-42.5 -41t-52.5 -27.5l-40 49q31 11 49.5 30.5t18.5 39.5q0 10 -10 15.5t-22.5 13t-22.5 21t-10 39.5q0 35 23 58t56 23q40 0 65.5 -31t25.5 -80zM229 371q0 -16 -6 -30t-16.5 -24.5t-24.5 -17t-30 -6.5t-30.5 6.5t-25 17t-16.5 24.5
t-6 30t6 30.5t16.5 25t24 17t29.5 6.5t30.5 -6t25 -17t17 -25.5t6.5 -30.5z" />
    <glyph glyph-name="less" unicode="&#x3c;" horiz-adv-x="368" 
d="M240 12l-220 287l220 288l88 -71l-165 -217l165 -218z" />
    <glyph glyph-name="equal" unicode="=" horiz-adv-x="635" 
d="M50 162v101h535v-101h-535zM50 344v101h535v-101h-535z" />
    <glyph glyph-name="greater" unicode="&#x3e;" horiz-adv-x="367" 
d="M128 12l-88 69l164 218l-164 217l88 71l219 -288z" />
    <glyph glyph-name="question" unicode="?" horiz-adv-x="463" 
d="M282 64q0 -32 -22 -54.5t-54 -22.5q-31 0 -52.5 22.5t-21.5 54.5t21.5 53t53.5 21q30 0 52.5 -21t22.5 -53zM403 543q0 -35 -11 -60.5t-26.5 -44t-32 -30.5t-27.5 -19q-38 -26 -52.5 -58.5t-14.5 -68.5q0 -20 3 -39h-94q-8 35 -8 62q0 46 20 81.5t58 66.5q12 10 25.5 19
t24.5 20t18 24.5t7 33.5q0 38 -25.5 57.5t-61.5 19.5q-35 0 -65.5 -14t-52.5 -31l-48 71q12 11 30.5 23.5t42.5 22.5t53 16.5t62 6.5q36 0 68 -11t55.5 -31.5t37.5 -50t14 -66.5z" />
    <glyph glyph-name="at" unicode="@" horiz-adv-x="911" 
d="M556 380q-15 7 -41 7q-47 0 -80.5 -23t-55 -59t-31.5 -80t-10 -86q0 -40 13 -54t39 -14q15 0 34.5 8t37.5 24t33 40.5t22 57.5zM861 276q0 -66 -18 -119.5t-49 -91.5t-72.5 -58.5t-87.5 -20.5q-59 0 -85.5 26t-29.5 61q-26 -32 -65.5 -53.5t-84.5 -21.5q-23 0 -45 8.5
t-39 26.5t-28 45.5t-11 64.5q0 60 17.5 115.5t52.5 99t86.5 69.5t119.5 26q37 0 71 -9.5t66 -26.5q-20 -67 -34.5 -134t-28.5 -135q-6 -29 -7 -47.5t4 -29t16 -14.5t28 -4q27 0 50.5 17t41.5 46.5t28.5 70.5t10.5 89q0 58 -21.5 109.5t-61.5 89.5t-96 60.5t-125 22.5
q-73 0 -132 -29.5t-101 -79t-64.5 -113t-22.5 -131.5q0 -66 23.5 -121.5t64.5 -95.5t96 -62t118 -22q41 0 76.5 5.5t67.5 16.5l18 -68q-37 -12 -78.5 -17.5t-83.5 -5.5q-79 0 -151 24t-126.5 71t-86.5 116t-32 159q0 88 31 164.5t86 133.5t131 89.5t166 32.5
q84 0 156.5 -24.5t126 -70.5t84 -110.5t30.5 -143.5z" />
    <glyph glyph-name="A" unicode="A" horiz-adv-x="577" 
d="M371 278q-23 78 -44 153t-38 147q-22 -78 -44 -153t-44 -147h170zM453 0l-56 182h-224l-56 -182h-119l227 692h133l221 -692h-126z" />
    <glyph glyph-name="B" unicode="B" horiz-adv-x="601" 
d="M423 206q0 38 -18 66t-47 36q-13 4 -26 5t-38 1h-99v-220h102q66 0 96 32.5t30 79.5zM402 503q0 31 -15.5 54.5t-40.5 32.5q-11 4 -25.5 6t-39.5 2h-86v-190h95q32 0 50 4.5t35 21.5q16 17 21.5 36t5.5 33zM551 196q0 -103 -69 -149.5t-201 -46.5h-201v692h183
q39 0 66 -1.5t47.5 -5.5t36.5 -10.5t32 -16.5q78 -50 78 -136q0 -56 -30.5 -95t-88.5 -56q43 -11 71.5 -29.5t45 -42.5t23.5 -50.5t7 -52.5z" />
    <glyph glyph-name="C" unicode="C" horiz-adv-x="567" 
d="M537 51q-80 -61 -189 -61q-69 0 -123.5 25.5t-95.5 74.5q-79 96 -79 244q0 123 46 209q39 75 106.5 117t148.5 42q51 0 96 -14t76 -40l-53 -75q-28 20 -57 29.5t-61 9.5q-45 0 -80 -21.5t-58 -61.5q-18 -32 -27 -76t-9 -105q0 -62 6.5 -101.5t20.5 -68.5q23 -50 63 -74
t91 -24q37 0 66 10.5t58 33.5z" />
    <glyph glyph-name="D" unicode="D" horiz-adv-x="621" 
d="M443 333q0 67 -8.5 119.5t-35.5 89.5q-24 33 -53.5 46.5t-76.5 13.5h-74v-508h77q92 0 131.5 60t39.5 179zM571 344q0 -79 -19 -140.5t-54 -106.5q-22 -28 -45 -46.5t-52 -30t-65.5 -16t-84.5 -4.5h-171v692h144q49 0 88.5 -5t72 -16.5t60 -30t51.5 -46.5q75 -87 75 -250
z" />
    <glyph glyph-name="E" unicode="E" horiz-adv-x="499" 
d="M80 0v692h384l-15 -94h-252v-189h211v-94h-211v-217h277v-98h-394z" />
    <glyph glyph-name="F" unicode="F" horiz-adv-x="431" 
d="M432 598h-237v-188h193v-94h-193v-316h-115v692h366z" />
    <glyph glyph-name="G" unicode="G" horiz-adv-x="639" 
d="M569 48q-48 -29 -103 -43.5t-113 -14.5q-73 0 -129 23.5t-97 74.5q-40 49 -58.5 109.5t-18.5 143.5q0 108 32 183t98 124q38 29 79 41.5t92 12.5q121 0 206 -73l-58 -70q-36 28 -71 40.5t-75 12.5q-48 0 -81.5 -20t-54 -56.5t-30 -87t-9.5 -111.5q0 -75 13 -126.5
t38 -80.5q21 -25 56 -38.5t75 -13.5q27 0 49.5 5.5t42.5 16.5v180h-118l-16 94h251v-326z" />
    <glyph glyph-name="H" unicode="H" horiz-adv-x="626" 
d="M431 0v320h-236v-320h-115v692h115v-278h236v278h115v-692h-115z" />
    <glyph glyph-name="I" unicode="I" horiz-adv-x="278" 
d="M80 0v692h118v-692h-118z" />
    <glyph glyph-name="J" unicode="J" horiz-adv-x="283" 
d="M203 128q0 -43 -2 -72.5t-7 -51.5t-13 -38t-19 -31q-22 -30 -53.5 -51.5t-63.5 -33.5l-54 61q28 15 49.5 36.5t31.5 41.5q4 9 7.5 20t5 26t2.5 35t1 48v574h115v-564z" />
    <glyph glyph-name="K" unicode="K" horiz-adv-x="571" 
d="M80 0v692h115v-692h-115zM431 0l-233 369l225 323h142l-240 -321l256 -371h-150z" />
    <glyph glyph-name="L" unicode="L" horiz-adv-x="463" 
d="M434 0h-354v692h115v-598h258z" />
    <glyph glyph-name="M" unicode="M" horiz-adv-x="816" 
d="M643 0l-32 429q-1 16 -2 34t-1.5 34.5t-1 30t-0.5 21.5q-4 -17 -10.5 -47.5t-16.5 -63.5l-126 -438h-98l-115 419q-5 17 -9.5 36.5t-8.5 37.5t-7.5 33t-4.5 24q0 -9 -0.5 -24.5t-1.5 -34t-2.5 -38t-2.5 -35.5l-30 -418h-113l63 692h153l106 -392q12 -44 17.5 -73t8.5 -45
q2 16 8.5 48t16.5 68l109 394h153l61 -692h-113z" />
    <glyph glyph-name="N" unicode="N" horiz-adv-x="629" 
d="M428 0l-155 325q-14 29 -27.5 59t-25.5 57t-21.5 50.5t-15.5 38.5l-3 -3q4 -44 5 -95t2 -97l4 -335h-111v692h130l168 -338q12 -24 23.5 -50.5t20.5 -50.5t15.5 -44.5t9.5 -32.5l3 3q-1 13 -3 36.5t-3.5 51.5t-2.5 56.5t-1 52.5l-2 316h111v-692h-121z" />
    <glyph glyph-name="O" unicode="O" horiz-adv-x="678" 
d="M500 340q0 63 -7.5 113.5t-25.5 86.5t-49 55t-77 19q-89 0 -126 -67.5t-37 -191.5q0 -134 37.5 -205.5t128.5 -71.5q39 0 68 15t48.5 46.5t29.5 81t10 119.5zM628 346q0 -81 -19 -147t-55.5 -112.5t-89.5 -71.5t-120 -25q-74 0 -129 27t-92 74.5t-55 113t-18 142.5
q0 85 21 151t59 111.5t91 69t118 23.5q73 0 127.5 -27.5t90.5 -75.5t53.5 -113t17.5 -140z" />
    <glyph glyph-name="P" unicode="P" horiz-adv-x="555" 
d="M407 479q0 58 -28 87q-16 17 -39 25.5t-57 8.5h-88v-244h88q64 0 94 30t30 93zM535 485q0 -51 -17.5 -92t-47.5 -69.5t-71 -44t-88 -15.5h-116v-264h-115v692h184q38 0 65 -2t47 -6t35 -10t29 -15q46 -27 70.5 -72t24.5 -102z" />
    <glyph glyph-name="Q" unicode="Q" horiz-adv-x="680" 
d="M500 339q0 67 -8 118.5t-26.5 86t-49 52.5t-75.5 18q-87 0 -125 -65.5t-38 -194.5q0 -78 11 -131t32.5 -85t52.5 -46t71 -14q38 0 67 14t48.5 45t29.5 80.5t10 121.5zM671 -116q-25 -11 -54 -11q-38 0 -72.5 16t-61.5 34q-29 20 -63 37.5t-80 29.5q-72 0 -126.5 27
t-91 75t-54.5 113t-18 142q0 85 21 151t58.5 111.5t90.5 69t118 23.5q71 0 125 -25.5t91 -72.5t55.5 -112.5t18.5 -146.5q0 -116 -36.5 -195.5t-105.5 -122.5q19 -8 40 -20t36 -21q21 -13 43.5 -21t53.5 -8q10 0 20.5 1t22.5 3z" />
    <glyph glyph-name="R" unicode="R" horiz-adv-x="573" 
d="M396 494q0 53 -31.5 79.5t-108.5 26.5h-61v-220h57q45 0 71 6.5t42 22.5q14 14 22.5 35.5t8.5 49.5zM416 0l-60 107q-36 64 -63 103t-55 68q-10 10 -19 15t-24 6v-299h-115v692h211q58 0 100.5 -16t70 -43t41 -63t13.5 -76q0 -37 -11.5 -71.5t-34 -60.5t-54.5 -42
t-72 -16q9 -5 22 -19t27.5 -33t29 -41.5t28.5 -44.5l102 -166h-137z" />
    <glyph glyph-name="S" unicode="S" horiz-adv-x="587" 
d="M542 212q0 -43 -17.5 -83t-51.5 -71t-84.5 -49.5t-116.5 -18.5q-60 0 -118 15.5t-109 46.5l44 89q47 -27 90.5 -42t96.5 -15q64 0 100 29t36 81q0 35 -24.5 59.5t-78.5 39.5l-74 21q-48 14 -81 34t-53 49q-29 43 -29 100q0 46 17 83.5t48 64.5t74.5 42t95.5 15
q60 0 116.5 -17t102.5 -49l-52 -81q-48 28 -85 40.5t-78 12.5q-51 0 -82 -25.5t-31 -68.5q0 -32 20.5 -50.5t71.5 -33.5l82 -24q75 -22 122.5 -70t47.5 -124z" />
    <glyph glyph-name="T" unicode="T" horiz-adv-x="474" 
d="M479 596h-174v-596h-115v596h-175v96h479z" />
    <glyph glyph-name="U" unicode="U" horiz-adv-x="629" 
d="M554 196q0 -96 -62.5 -151t-177.5 -55q-68 0 -114 16.5t-74 44.5t-39.5 65t-11.5 79v497h115v-463q0 -40 7.5 -67t22.5 -43.5t38 -23.5t55 -7q64 0 95 36t31 105v463h115v-496z" />
    <glyph glyph-name="V" unicode="V" horiz-adv-x="558" 
d="M330 -3h-107l-233 695h126l125 -392q10 -30 19 -62t17 -77h1q19 73 41 139l129 392h120z" />
    <glyph glyph-name="W" unicode="W" horiz-adv-x="816" 
d="M647 -4h-132l-71 321q-8 35 -17 86t-17 114h-2q-2 -10 -6 -35t-9.5 -55t-11 -59.5t-9.5 -47.5l-67 -324h-135l-165 696h123l69 -322q24 -109 37 -221h2q3 20 8.5 49t11 59.5t10.5 58.5t9 46l72 330h129l72 -344q4 -18 8.5 -42.5t9 -51l9 -53t7.5 -48.5h2q4 26 9.5 56.5
t11 60.5t10.5 58t10 50l66 314h120z" />
    <glyph glyph-name="X" unicode="X" horiz-adv-x="540" 
d="M412 0l-143 274l-138 -274h-141l212 371l-186 321h140l111 -214l109 214h136l-176 -313l214 -379h-138z" />
    <glyph glyph-name="Y" unicode="Y" horiz-adv-x="518" 
d="M119 692l107 -223q8 -15 18 -41t16 -42q3 7 8 18.5t10.5 24t10.5 24.5t9 20l106 219h134l-223 -413v-279h-115v280l-220 412h139z" />
    <glyph glyph-name="Z" unicode="Z" horiz-adv-x="531" 
d="M462 0h-422v84l270 449q8 13 21.5 34t24.5 35q-19 -2 -37 -3t-38 -1h-228l26 94h406v-87l-269 -454q-8 -14 -19.5 -30.5t-20.5 -28.5q11 1 29.5 1.5t39.5 0.5h246z" />
    <glyph glyph-name="bracketleft" unicode="[" horiz-adv-x="289" 
d="M80 -155v888h189v-76h-91v-738h91v-74h-189z" />
    <glyph glyph-name="backslash" unicode="\" horiz-adv-x="410" 
d="M308 -49l-298 776l91 31l299 -777z" />
    <glyph glyph-name="bracketright" unicode="]" horiz-adv-x="289" 
d="M20 -155v74h91v738h-91v76h189v-888h-189z" />
    <glyph glyph-name="asciicircum" unicode="^" horiz-adv-x="600" 
d="M438 318l-138 286l-138 -286h-112l194 390h112l194 -390h-112z" />
    <glyph glyph-name="underscore" unicode="_" horiz-adv-x="500" 
d="M0 -125v50h500v-50h-500z" />
    <glyph glyph-name="grave" unicode="`" horiz-adv-x="314" 
d="M250 560l-220 102l50 93l204 -132z" />
    <glyph glyph-name="a" unicode="a" horiz-adv-x="515" 
d="M327 238l-7 0.5t-13 0.5q-41 0 -68.5 -6t-44 -18t-23.5 -30t-7 -42q0 -36 18.5 -56t51.5 -20q26 0 50 13.5t41 37.5zM421 -21q-23 9 -41.5 26.5t-27.5 41.5q-31 -35 -64.5 -47.5t-74.5 -12.5q-87 0 -127.5 42t-40.5 108q0 88 64 132t186 44h34v27q0 44 -12.5 66.5
t-57.5 22.5q-27 0 -54 -9t-48.5 -20t-35 -20l-13.5 -9l-49 79q57 36 107.5 52.5t107.5 16.5q120 0 154 -84q3 -8 5 -18t2.5 -24t0.5 -34v-48l-2 -145q0 -26 1 -43.5t6 -30.5t13.5 -23t23.5 -20z" />
    <glyph glyph-name="b" unicode="b" horiz-adv-x="557" 
d="M385 260q0 34 -4 64.5t-15 53t-29.5 35.5t-48.5 13q-37 0 -60.5 -16t-38.5 -35v-249q17 -17 41 -30.5t56 -13.5q52 0 75.5 41t23.5 137zM507 262q0 -61 -15 -111.5t-42 -86.5t-64 -55.5t-81 -19.5q-76 0 -123 58q-4 -20 -6 -28t-8 -19h-101q3 9 5.5 18t4 21.5t2.5 30
t1 43.5v477q0 44 -3 72.5t-10 49.5l114 25q5 -27 6.5 -49t1.5 -52v-117q0 -25 -1.5 -36.5l-1.5 -11.5l4 -1q26 26 55 37.5t65 11.5q45 0 81.5 -18t62 -51.5t39.5 -81t14 -106.5z" />
    <glyph glyph-name="c" unicode="c" horiz-adv-x="457" 
d="M427 54q-35 -35 -73 -51t-89 -16q-104 0 -159.5 68.5t-55.5 191.5q0 69 19 120t50 85t71.5 50.5t82.5 16.5t74 -11.5t66 -43.5l-55 -73q-43 39 -85 39q-55 0 -80 -51q-11 -23 -16 -58t-5 -83q0 -101 34 -138q26 -29 67 -29q52 0 102 50z" />
    <glyph glyph-name="d" unicode="d" horiz-adv-x="555" 
d="M366 386q-17 18 -40 29.5t-52 11.5q-24 0 -39.5 -8t-23.5 -16q-5 -5 -11.5 -14.5t-12.5 -27t-10.5 -44.5t-4.5 -67q0 -63 9.5 -95.5t24.5 -47.5q8 -8 24 -16.5t43 -8.5q62 0 93 48v256zM390 0q-8 18 -9 39q-33 -33 -67 -41.5t-57 -8.5q-50 0 -83 16t-53 36
q-30 29 -50.5 82t-20.5 128q0 43 7 77.5t18.5 61t25 45.5t27.5 32q32 31 67.5 42t66.5 11q21 0 50.5 -8.5t55.5 -37.5l2 1q-4 25 -4 42v40v180l109 -17v-544q0 -47 1.5 -77.5t4 -50t5 -30.5t5.5 -18h-101z" />
    <glyph glyph-name="e" unicode="e" horiz-adv-x="513" 
d="M359 306q0 62 -24.5 96.5t-66.5 34.5q-47 0 -71.5 -34.5t-24.5 -96.5h187zM171 224v-9q0 -26 5.5 -52t20 -46.5t38.5 -33t61 -12.5q68 0 126 50l43 -67q-79 -67 -182 -67q-54 0 -97 18.5t-73 53t-46.5 84t-16.5 110.5q0 67 15 113.5t48 84.5q31 35 69 51.5t86 16.5
q38 0 72.5 -11.5t66.5 -40.5q33 -30 49.5 -81t16.5 -139v-23h-302z" />
    <glyph glyph-name="f" unicode="f" horiz-adv-x="307" 
d="M311 635q-23 12 -38 15t-21 3q-27 0 -45 -16q-14 -14 -16.5 -32t-2.5 -30v-69h132l-28 -76h-103v-430h-109v430h-47v76h46q-1 11 -1.5 23t-0.5 26q0 40 7.5 75.5t33.5 62.5q14 14 30 22.5t31.5 13t29.5 5.5t25 1q38 0 65.5 -9t47.5 -20z" />
    <glyph glyph-name="g" unicode="g" horiz-adv-x="536" 
d="M340 349q0 15 -4 33t-18 32q-15 15 -34.5 18.5t-30.5 3.5q-14 0 -32.5 -4.5t-32.5 -18.5q-15 -16 -18.5 -34.5t-3.5 -30.5q0 -15 4 -33t19 -32t34 -17.5t30 -3.5t30 3t35 19q15 15 18.5 34.5t3.5 30.5zM551 458q-24 -21 -47 -27t-41 -6q-20 0 -39 6v1q22 -26 27.5 -51
t5.5 -38q0 -32 -10.5 -57t-30.5 -45q-29 -29 -69 -42t-82 -12q-2 -1 -15.5 -6.5t-27.5 -13.5q-8 -5 -16.5 -12t-8.5 -16q0 -8 5 -13q3 -3 12.5 -4.5t32.5 -2.5l52 -1q19 0 39.5 -1.5t40.5 -6t39.5 -14t35.5 -25.5q14 -14 25.5 -37.5t11.5 -59.5q0 -39 -13 -65t-29 -42
q-26 -26 -72 -42.5t-113 -16.5q-54 0 -106.5 12t-84.5 44q-20 20 -26.5 42t-6.5 40q0 14 2.5 28t7.5 26h97q-1 -5 -1.5 -12t-0.5 -13q0 -11 3.5 -27.5t17.5 -30.5q19 -18 46.5 -22t43.5 -4q42 0 66.5 10t36.5 23q18 19 18 46q0 17 -5.5 27.5t-11.5 16.5q-8 8 -24.5 14.5
t-47.5 9.5q-12 1 -23.5 1.5t-23.5 0.5h-32q-15 0 -31 2q-23 2 -39 5.5t-26 7.5t-15.5 8t-8.5 6q-11 11 -14.5 23t-3.5 23q0 15 4 27t16 24q15 15 39 24.5t37 13.5q-33 9 -52 23.5t-24 18.5q-22 22 -30.5 47.5t-8.5 54.5q0 37 12 64t30 47q25 27 66 43.5t93 16.5
q34 0 59 -5.5t42 -10.5l26 -6.5t30 -3.5q24 0 47.5 9t42.5 26z" />
    <glyph glyph-name="h" unicode="h" horiz-adv-x="564" 
d="M375 0v345q0 47 -16.5 64t-47.5 17q-29 0 -62 -17t-60 -45v-364h-109v602q0 34 -2.5 62t-7.5 48l111 24q5 -22 7.5 -52t2.5 -67v-107q0 -24 -1 -40.5l-1 -16.5q73 66 155 66q45 0 77.5 -18.5t45.5 -43.5q10 -19 13.5 -40t3.5 -59v-358h-109z" />
    <glyph glyph-name="i" unicode="i" horiz-adv-x="271" 
d="M81 0v498l109 20v-518h-109zM209 654q0 -30 -21.5 -51.5t-52.5 -21.5q-30 0 -50.5 21.5t-20.5 51.5q0 31 21 52.5t52 21.5q29 0 50.5 -21t21.5 -53z" />
    <glyph glyph-name="j" unicode="j" horiz-adv-x="271" 
d="M189 12q0 -67 -12 -101t-25 -51q-17 -22 -40.5 -40t-54.5 -32l-45 64q20 14 33 29t21 33.5t11 42t3 54.5v487l109 20v-506zM208 656q0 -32 -21.5 -53.5t-52.5 -21.5q-30 0 -51 21t-21 52q0 30 21.5 52t51.5 22t51.5 -21.5t21.5 -50.5z" />
    <glyph glyph-name="k" unicode="k" horiz-adv-x="511" 
d="M80 0v589q0 37 -2.5 65t-8.5 57l110 27q5 -24 7.5 -59t2.5 -75v-604h-109zM388 0l-191 286l150 220h133l-173 -214l214 -292h-133z" />
    <glyph glyph-name="l" unicode="l" horiz-adv-x="272" 
d="M257 1q-30 -12 -66 -12q-42 0 -64.5 16.5t-33 39t-12 47t-1.5 40.5v431q0 26 -0.5 46.5t-2 37.5t-3 32.5t-4.5 31.5l110 25q6 -23 7.5 -56t1.5 -83v-429q0 -26 0.5 -41.5t2 -25t3.5 -15t5 -9.5q5 -7 16 -10t23 2z" />
    <glyph glyph-name="m" unicode="m" horiz-adv-x="798" 
d="M608 0v350q0 44 -11.5 60t-40.5 16q-27 0 -53 -16.5t-52 -41.5v-368h-105v348q0 45 -11.5 61.5t-41.5 16.5q-23 0 -49.5 -12t-54.5 -38v-376h-109v363q0 48 -4.5 78t-13.5 50l100 28q15 -24 18 -64q30 31 64.5 47.5t69.5 16.5q34 0 63.5 -15t57.5 -59q37 38 73 56t77 18
q63 0 97.5 -34.5t34.5 -113.5v-371h-109z" />
    <glyph glyph-name="n" unicode="n" horiz-adv-x="542" 
d="M353 0v338q0 52 -13 70t-44 18q-24 0 -55 -16t-56 -41v-369h-109v372q0 40 -4 66.5t-15 53.5l100 28q9 -17 13.5 -34t4.5 -37q41 35 77.5 52.5t77.5 17.5q59 0 95.5 -35t36.5 -105v-379h-109z" />
    <glyph glyph-name="o" unicode="o" horiz-adv-x="537" 
d="M370 251q0 54 -7.5 89.5t-21 57t-32.5 30.5t-43 9q-52 0 -75.5 -41.5t-23.5 -134.5q0 -56 7 -93t20 -59t32 -31t43 -9q49 0 75 42.5t26 139.5zM492 252q0 -62 -15.5 -111t-45 -83t-71 -52.5t-92.5 -18.5t-92.5 18.5t-70.5 53t-44.5 84t-15.5 110.5t15.5 110t44.5 83.5
t70 53.5t91 19q54 0 96 -19t71 -54.5t44 -84.5t15 -109z" />
    <glyph glyph-name="p" unicode="p" horiz-adv-x="550" 
d="M186 125q20 -19 45 -32t56 -13q34 0 56 21q16 15 25 35t13.5 41t5 41t0.5 35q0 49 -6.5 88t-28.5 62q-13 14 -27 18.5t-30 4.5q-38 0 -65 -17.5t-44 -34.5v-249zM171 519q8 -34 8 -60q29 34 66 47t69 13q45 0 75 -15.5t48 -33.5q13 -13 25 -31.5t21.5 -44t15.5 -59
t6 -76.5q0 -84 -21 -138.5t-52 -84.5q-18 -17 -49.5 -33t-80.5 -16q-19 0 -51 7t-68 35q2 -17 2.5 -36t0.5 -33v-148l-106 -27v590q0 51 -3 80t-7 46z" />
    <glyph glyph-name="q" unicode="q" horiz-adv-x="555" 
d="M369 376q-17 23 -43 36.5t-55 13.5q-55 0 -79 -45t-24 -120q0 -53 7.5 -88t21.5 -55.5t33.5 -29t43.5 -8.5q29 0 54.5 16t40.5 39v241zM487 506q-6 -23 -9 -61t-3 -83v-551l-106 -27v187q0 27 1 47l1 20q-51 -51 -119 -51q-41 0 -77.5 15.5t-64 47t-44 79t-16.5 112.5
q0 133 54 205.5t150 72.5q39 0 74 -16.5t55 -45.5q1 19 3 29t6 20h95z" />
    <glyph glyph-name="r" unicode="r" horiz-adv-x="340" 
d="M316 410q-8 3 -15 5t-17 2q-35 0 -61 -22t-34 -53v-342h-109v357q0 48 -5 80.5t-13 55.5l101 26q19 -36 19 -80q30 42 61 61.5t68 19.5q22 0 39 -8z" />
    <glyph glyph-name="s" unicode="s" horiz-adv-x="474" 
d="M434 158q0 -38 -15 -70t-42 -54.5t-64.5 -35t-83.5 -12.5q-47 0 -96 14.5t-98 41.5l39 79q34 -20 77.5 -36.5t86.5 -16.5q36 0 59 19.5t23 51.5q0 29 -19.5 45.5t-62.5 25.5l-61 13q-57 12 -89 48.5t-32 90.5q0 36 13.5 65t38.5 49.5t59.5 31.5t76.5 11q52 0 93.5 -13.5
t73.5 -30.5l-36 -76q-35 20 -64.5 29t-59.5 9q-35 0 -56 -16t-21 -45q0 -24 15 -37.5t53 -23.5l63 -16q38 -10 63 -25t39.5 -33.5t20.5 -39.5t6 -43z" />
    <glyph glyph-name="t" unicode="t" horiz-adv-x="331" 
d="M311 9q-48 -22 -99 -22q-37 0 -62 10t-40.5 28t-22.5 41.5t-7 50.5v313h-56v76h56q0 32 0.5 64t4.5 61l113 27q-4 -31 -6.5 -72.5t-2.5 -79.5h121l-29 -76h-92v-284q0 -47 13 -64t49 -17q19 0 46 10z" />
    <glyph glyph-name="u" unicode="u" horiz-adv-x="542" 
d="M417 -16q-17 12 -27 27t-17 38q-55 -62 -144 -62q-43 0 -75 13.5t-51 36.5q-15 18 -21.5 45t-6.5 75v341l109 20v-339q0 -24 2.5 -44t10 -34.5t21.5 -22.5t37 -8q13 0 28 5t28.5 14t24.5 21t17 26v362l109 20v-381q0 -37 8 -60t15 -31.5t8 -9.5z" />
    <glyph glyph-name="v" unicode="v" horiz-adv-x="473" 
d="M284 -2h-97l-182 504l113 16l88 -273q8 -24 16.5 -56t14.5 -57h1q6 29 14 59t17 58l84 257h115z" />
    <glyph glyph-name="w" unicode="w" horiz-adv-x="698" 
d="M545 -2h-103l-62 233q-9 33 -17.5 70.5t-15.5 67.5h-1q-8 -35 -17 -74.5t-17 -68.5l-61 -228h-103l-138 501l109 15l55 -245q8 -36 14 -67t11 -66h2q3 16 7 34.5l8 37t8.5 35t7.5 29.5l65 234h108l57 -228q9 -36 17 -70.5t16 -73.5h1q5 32 12.5 71t13.5 65l52 236h114z
" />
    <glyph glyph-name="x" unicode="x" horiz-adv-x="477" 
d="M349 0q-7 11 -23.5 39.5t-34.5 59.5t-33 57t-19 33q-7 -14 -22.5 -41.5t-32.5 -57t-32.5 -55t-22.5 -35.5h-139l188 274l-146 217l119 24q9 -14 21 -35t24.5 -43.5l25 -45t21.5 -40.5q5 12 16 35t23.5 47t23.5 44.5t17 28.5h128l-149 -230l185 -276h-138z" />
    <glyph glyph-name="y" unicode="y" horiz-adv-x="483" 
d="M478 506l-187 -540q-10 -29 -20 -50t-19 -35.5t-16.5 -24t-13.5 -15.5q-24 -25 -52 -36.5t-68 -20.5l-36 71q37 10 55.5 21.5t28.5 22.5q9 9 24.5 32.5t28.5 68.5h-35q-14 54 -24.5 85.5t-18.5 57.5l-120 355l112 19l93 -308q3 -10 6.5 -24t7.5 -29.5t7 -31t6 -28.5h2
q8 35 18 70.5t19 65.5l84 274h118z" />
    <glyph glyph-name="z" unicode="z" horiz-adv-x="459" 
d="M392 0h-357v73l254 355h-234v78h358v-78l-240 -350h251z" />
    <glyph glyph-name="braceleft" unicode="{" horiz-adv-x="348" 
d="M238 -155q-23 0 -44.5 8t-38 25t-26 42.5t-9.5 61.5v174q0 25 -11 41.5t-27 26.5t-33 14.5t-29 4.5v91q12 0 29 5t33 15t27 27t11 41v175q0 35 9.5 60.5t26 42.5t37.5 25t45 8h90v-91h-49q-21 0 -33 -6.5t-18 -16.5t-8 -23t-2 -25v-168q0 -33 -9.5 -54t-23.5 -33.5
t-30.5 -18t-29.5 -7.5v-4q13 -2 29.5 -6.5t30.5 -16t23.5 -33t9.5 -55.5v-168q0 -12 2 -25t8 -23.5t18 -17t33 -6.5h49v-90h-90z" />
    <glyph glyph-name="bar" unicode="|" horiz-adv-x="260" 
d="M80 -207v964h100v-964h-100z" />
    <glyph glyph-name="braceright" unicode="}" horiz-adv-x="348" 
d="M328 243q-13 0 -30 -4.5t-32.5 -14.5t-26.5 -26.5t-11 -41.5v-175q0 -35 -9.5 -61t-25.5 -42.5t-37.5 -24.5t-45.5 -8h-90v90h48q21 0 33.5 6.5t18.5 17t8 23.5t2 25v167q0 35 9.5 56.5t24 33.5t30.5 16t30 6v5q-14 1 -30 6t-30.5 17t-24 33t-9.5 55v169q0 12 -2 25
t-8 23t-18.5 16.5t-33.5 6.5h-48v91h91q22 0 43.5 -8t37.5 -25t26 -43t10 -61v-174q0 -24 11 -41t26.5 -27t32.5 -15t30 -5v-91z" />
    <glyph glyph-name="asciitilde" unicode="~" horiz-adv-x="556" 
d="M506 305q-9 -16 -20 -32t-26 -28.5t-34 -20t-43 -7.5q-26 0 -53 10.5t-54 22.5q-28 13 -55.5 25t-51.5 12q-31 0 -51 -21.5t-36 -46.5l-32 84q9 16 20 31.5t26 28t34 20t43 7.5q26 0 52.5 -9.5t54.5 -22.5q28 -12 55 -25t52 -13q15 0 27.5 6t23 16t19.5 22t17 24z" />
    <glyph glyph-name="Euro" horiz-adv-x="627" 
d="M597 30q-17 -10 -33.5 -17.5t-35.5 -13t-40.5 -8t-49.5 -2.5q-69 0 -123.5 25.5t-95.5 74.5q-46 57 -66 134h-113v87h101q0 7 -0.5 13t-0.5 13q0 13 0.5 25.5t1.5 24.5h-102v87h117q5 20 12.5 38t16.5 35q39 75 106.5 117t148.5 42q51 0 84 -9.5t58 -24.5l-23 -96
q-28 20 -57 29.5t-61 9.5q-45 0 -80 -21.5t-58 -61.5q-7 -13 -12.5 -27t-10.5 -31h222v-87h-234q-1 -9 -1 -18v-19q0 -11 0.5 -20.5t0.5 -18.5h234v-87h-224q3 -13 7 -24t9 -22q23 -50 63 -74t91 -24q37 0 66 10.5t58 33.5z" />
    <glyph glyph-name="Euro" unicode="&#x20ac;" horiz-adv-x="627" 
d="M597 30q-17 -10 -33.5 -17.5t-35.5 -13t-40.5 -8t-49.5 -2.5q-69 0 -123.5 25.5t-95.5 74.5q-46 57 -66 134h-113v87h101q0 7 -0.5 13t-0.5 13q0 13 0.5 25.5t1.5 24.5h-102v87h117q5 20 12.5 38t16.5 35q39 75 106.5 117t148.5 42q51 0 84 -9.5t58 -24.5l-23 -96
q-28 20 -57 29.5t-61 9.5q-45 0 -80 -21.5t-58 -61.5q-7 -13 -12.5 -27t-10.5 -31h222v-87h-234q-1 -9 -1 -18v-19q0 -11 0.5 -20.5t0.5 -18.5h234v-87h-224q3 -13 7 -24t9 -22q23 -50 63 -74t91 -24q37 0 66 10.5t58 33.5z" />
    <glyph glyph-name="currency" unicode="&#xa4;" horiz-adv-x="627" 
d="M311 567q-28 0 -52.5 -11t-43 -29.5t-29 -43t-10.5 -51.5q0 -28 10.5 -52.5t29 -42.5t43 -28.5t52.5 -10.5t52.5 10.5t43 28.5t29 42.5t10.5 52.5q0 27 -10.5 51.5t-29 43t-43 29.5t-52.5 11zM191 603q25 18 54 28t65 10q68 0 121 -38l99 99l51 -52l-99 -100
q37 -52 37 -118q0 -65 -37 -118l99 -100l-51 -51l-99 99q-25 -18 -54.5 -28t-65.5 -10q-69 0 -120 38l-100 -99l-51 51l99 100q-37 52 -37 118t37 118l-99 100l51 52z" />
    <glyph glyph-name="brokenbar" unicode="&#xa6;" horiz-adv-x="260" 
d="M80 -207v394h100v-394h-100zM80 363v394h100v-394h-100z" />
    <glyph glyph-name="section" unicode="&#xa7;" horiz-adv-x="552" 
d="M398 260q0 17 -7.5 30.5t-18.5 24t-25.5 18.5t-27.5 14l-95 45q-23 -11 -39 -27.5t-16 -42.5q0 -20 7.5 -33.5t19 -23.5t26 -17.5t29.5 -14.5l99 -46q21 11 34.5 30.5t13.5 42.5zM512 282q0 -43 -24.5 -77t-62.5 -54q62 -47 62 -122q0 -47 -21 -80.5t-54 -55t-74 -31.5
t-80 -10q-35 0 -67.5 6.5t-60.5 21t-51 38t-39 57.5l106 51q11 -39 45 -57t72 -18q16 0 32.5 3.5t30 12t22 21.5t8.5 32q0 18 -10 31.5t-25.5 24t-36 19.5t-41.5 18q-14 6 -30 13t-32 15.5t-31 17t-27 16.5q-30 21 -48.5 51t-18.5 72q0 51 25 86t70 60q-33 21 -52 50t-19 67
q0 42 18 73.5t47.5 52t66 30.5t73.5 10q29 0 59.5 -5t57.5 -17t50 -31.5t37 -47.5l-104 -59q-12 30 -39 45.5t-58 15.5t-56.5 -16.5t-25.5 -50.5q0 -23 14.5 -39.5t39.5 -29.5q7 -3 20.5 -9t28.5 -13t29.5 -13t22.5 -10q27 -13 54 -27.5t48.5 -34t35 -44.5t13.5 -59z" />
    <glyph glyph-name="copyright" unicode="&#xa9;" horiz-adv-x="840" 
d="M546 179q-25 -20 -52.5 -29.5t-63.5 -9.5q-85 0 -136 58q-50 58 -50 149q0 77 28 130q24 46 66.5 71.5t93.5 25.5q31 0 59.5 -9.5t45.5 -23.5l-38 -57q-32 23 -66 23q-21 0 -40.5 -9.5t-30.5 -26.5q-23 -35 -23 -107q0 -43 3.5 -69t13.5 -43q26 -47 80 -47q19 0 36 6
t36 21zM706 355q0 62 -22.5 116.5t-61.5 95t-91 63.5t-111 23t-111 -23t-90.5 -63.5t-61 -95t-22.5 -116.5t22.5 -117t61 -95.5t90.5 -64t111 -23.5t111 23.5t91 64t61.5 95.5t22.5 117zM790 355q0 -78 -29.5 -146t-79.5 -118t-117.5 -79t-143.5 -29t-143.5 29t-117.5 79
t-79.5 118t-29.5 146t29.5 145.5t79.5 118t117.5 79.5t143.5 29t143.5 -29t117.5 -79.5t79.5 -118t29.5 -145.5z" />
    <glyph glyph-name="guillemotleft" unicode="&#xab;" horiz-adv-x="507" 
d="M181 20l-151 226l151 227l74 -50l-115 -177l115 -176zM403 20l-152 226l152 227l74 -50l-116 -177l116 -176z" />
    <glyph glyph-name="logicalnot" unicode="&#xac;" horiz-adv-x="525" 
d="M368 66v140h-318v93h425v-233h-107z" />
    <glyph glyph-name="registered" unicode="&#xae;" horiz-adv-x="840" 
d="M479 442q0 39 -30 51q-7 2 -19.5 4t-27.5 2h-30v-113h28q27 0 41 3t22 11q16 16 16 42zM493 149q-6 10 -10.5 18t-9 15.5t-9 16t-10.5 19.5q-15 28 -26 46.5t-18.5 30t-13 17.5t-11.5 8q-6 3 -13 3v-174h-82v417h155q56 0 89.5 -33.5t33.5 -88.5q0 -24 -7.5 -44.5
t-20 -36t-29.5 -25t-36 -9.5q6 -5 9.5 -9t7.5 -9q9 -11 25.5 -38t33 -54.5t29 -48.5l12.5 -21h-99zM706 355q0 62 -22.5 116.5t-61.5 95t-91 63.5t-111 23t-111 -23t-90.5 -63.5t-61 -95t-22.5 -116.5t22.5 -117t61 -95.5t90.5 -64t111 -23.5t111 23.5t91 64t61.5 95.5
t22.5 117zM790 355q0 -78 -29.5 -146t-79.5 -118t-117.5 -79t-143.5 -29t-143.5 29t-117.5 79t-79.5 118t-29.5 146t29.5 145.5t79.5 118t117.5 79.5t143.5 29t143.5 -29t117.5 -79.5t79.5 -118t29.5 -145.5z" />
    <glyph glyph-name="degree" unicode="&#xb0;" horiz-adv-x="393" 
d="M272 527q0 58 -18.5 83.5t-58.5 25.5q-39 0 -57 -26t-18 -78q0 -57 18 -83.5t59 -26.5q39 0 57 25.5t18 79.5zM363 528q0 -80 -45 -125t-122 -45q-78 0 -122 46t-44 125q0 39 12 70.5t33.5 54t52 34.5t67.5 12q79 0 123.5 -45.5t44.5 -126.5z" />
    <glyph glyph-name="plusminus" unicode="&#xb1;" horiz-adv-x="507" 
d="M52 0v100h403v-100h-403zM307 277v-143h-107v143h-150v100h150v137h107v-137h150v-100h-150z" />
    <glyph glyph-name="mu" unicode="&#xb5;" horiz-adv-x="546" 
d="M421 -14q-16 12 -26.5 26.5t-17.5 36.5q-56 -63 -144 -63q-11 0 -23 3t-23 14q1 -8 2 -21t1 -24v-146l-110 -27v714l108 21v-349q0 -26 3.5 -45t14.5 -32q9 -10 22.5 -16t30.5 -6q30 0 59 18.5t41 45.5v360l107 22v-384q0 -34 8 -56.5t15 -31t8 -9.5z" />
    <glyph glyph-name="mu" unicode="&#x3bc;" horiz-adv-x="546" 
d="M421 -14q-16 12 -26.5 26.5t-17.5 36.5q-56 -63 -144 -63q-11 0 -23 3t-23 14q1 -8 2 -21t1 -24v-146l-110 -27v714l108 21v-349q0 -26 3.5 -45t14.5 -32q9 -10 22.5 -16t30.5 -6q30 0 59 18.5t41 45.5v360l107 22v-384q0 -34 8 -56.5t15 -31t8 -9.5z" />
    <glyph glyph-name="paragraph" unicode="&#xb6;" horiz-adv-x="597" 
d="M438 -125v767h-115v-767h-80v458q-48 0 -87.5 14t-67 38t-43 57.5t-15.5 72.5q0 49 16.5 85.5t46.5 60.5t72 36t94 12h258v-834h-79z" />
    <glyph glyph-name="periodcentered" unicode="&#xb7;" horiz-adv-x="276" 
d="M216 276q0 -33 -23 -57t-55 -24q-33 0 -55.5 24t-22.5 57q0 34 23 57.5t55 23.5q33 0 55.5 -23.5t22.5 -57.5z" />
    <glyph glyph-name="periodcentered" unicode="&#x22c5;" horiz-adv-x="276" 
d="M216 276q0 -33 -23 -57t-55 -24q-33 0 -55.5 24t-22.5 57q0 34 23 57.5t55 23.5q33 0 55.5 -23.5t22.5 -57.5z" />
    <glyph glyph-name="periodcentered" unicode="&#x2219;" horiz-adv-x="276" 
d="M216 276q0 -33 -23 -57t-55 -24q-33 0 -55.5 24t-22.5 57q0 34 23 57.5t55 23.5q33 0 55.5 -23.5t22.5 -57.5z" />
    <glyph glyph-name="guillemotright" unicode="&#xbb;" horiz-adv-x="508" 
d="M105 20l-75 50l117 176l-117 177l75 50l151 -227zM326 20l-74 50l116 176l-116 177l74 50l152 -227z" />
    <glyph glyph-name="afii10023" unicode="&#x401;" horiz-adv-x="499" 
d="M80 0v692h384l-15 -94h-254v-189h213v-94h-211v-217h277v-98h-394zM232 807q0 -29 -19.5 -49t-46.5 -20t-46.5 20t-19.5 49t19.5 48.5t46.5 19.5t46.5 -19.5t19.5 -48.5zM445 807q0 -29 -20 -49t-47 -20t-46.5 20t-19.5 49t19.5 48.5t47.5 19.5q26 0 46 -19.5t20 -48.5z
" />
    <glyph glyph-name="afii10051" unicode="&#x402;" horiz-adv-x="659" 
d="M456 596h-186v-192q41 19 72 26t63 7q30 0 65 -8.5t67 -37.5q22 -20 34.5 -44t18.5 -48t7.5 -46.5t1.5 -39.5t-1.5 -38.5t-7 -45t-16.5 -47t-30 -44.5q-46 -50 -121 -50q-20 0 -44.5 4.5t-55.5 17.5l20 83q18 -11 34 -14.5t30 -3.5t27 4t24 20q14 21 16.5 52.5t2.5 58.5
q0 29 -3 57.5t-20 48.5q-16 20 -37.5 25.5t-39.5 5.5q-16 0 -43.5 -4.5t-63.5 -22.5v-320h-115v596h-165v96h480z" />
    <glyph glyph-name="afii10052" unicode="&#x403;" horiz-adv-x="471" 
d="M442 598h-247v-598h-115v692h376zM179 720l-34 63l204 132l50 -93z" />
    <glyph glyph-name="afii10053" unicode="&#x404;" horiz-adv-x="571" 
d="M382 313h-224v-9q0 -18 1 -41.5t5.5 -48t13.5 -48t25 -41.5q26 -29 59 -37t61 -8q13 0 30 1.5t36.5 7t40.5 16.5t42 29l49 -74q-19 -17 -38.5 -28t-45.5 -21q-31 -11 -58 -16t-62 -5q-22 0 -47.5 2.5t-52.5 10.5t-54 23.5t-52 41.5q-28 30 -44 64.5t-24.5 69.5t-10.5 69
t-2 62q0 31 2.5 68.5t12 76t28.5 76.5t52 71q38 37 87.5 57t113.5 20q62 0 107.5 -17t77.5 -40l-51 -78q-34 27 -68.5 36t-66.5 9q-11 0 -25 -1t-29 -5.5t-31 -13t-30 -22.5q-17 -17 -27 -37.5t-15 -41.5t-6.5 -41.5t-1.5 -37.5v-9h222v-90z" />
    <glyph glyph-name="afii10054" unicode="&#x405;" horiz-adv-x="587" 
d="M542 212q0 -43 -17.5 -83t-51.5 -71t-84.5 -49.5t-116.5 -18.5q-60 0 -118 15.5t-109 46.5l44 89q47 -27 90.5 -42t96.5 -15q64 0 100 29t36 81q0 35 -24.5 59.5t-78.5 39.5l-74 21q-48 14 -81 34t-53 49q-29 43 -29 100q0 46 17 83.5t48 64.5t74.5 42t95.5 15
q60 0 116.5 -17t102.5 -49l-52 -81q-48 28 -85 40.5t-78 12.5q-51 0 -82 -25.5t-31 -68.5q0 -32 20.5 -50.5t71.5 -33.5l82 -24q75 -22 122.5 -70t47.5 -124z" />
    <glyph glyph-name="afii10055" unicode="&#x406;" horiz-adv-x="278" 
d="M80 0v692h118v-692h-118z" />
    <glyph glyph-name="afii10056" unicode="&#x407;" horiz-adv-x="278" 
d="M124 808q0 -29 -17.5 -49.5t-40.5 -20.5t-40 20.5t-17 49.5t17 49.5t40 20.5t40.5 -20.5t17.5 -49.5zM269 808q0 -29 -17 -49.5t-41 -20.5q-23 0 -40.5 20.5t-17.5 49.5t17.5 49.5t41.5 20.5q23 0 40 -20.5t17 -49.5zM80 0v692h118v-692h-118z" />
    <glyph glyph-name="afii10057" unicode="&#x408;" horiz-adv-x="283" 
d="M203 128q0 -43 -2 -72.5t-7 -51.5t-13 -38t-19 -31q-22 -30 -53.5 -51.5t-63.5 -33.5l-54 61q28 15 49.5 36.5t31.5 41.5q4 9 7.5 20t5 26t2.5 35t1 48v574h115v-564z" />
    <glyph glyph-name="afii10058" unicode="&#x409;" horiz-adv-x="901" 
d="M589 94q27 0 58.5 5t54.5 27q14 14 22.5 35t8.5 47q0 22 -7.5 44t-22.5 37q-21 21 -47 26t-51 5h-91v-226h75zM399 598h-147l-5 -112q0 -9 -1.5 -38t-4.5 -69t-7.5 -87.5t-10.5 -92.5q-2 -17 -5.5 -36.5t-10 -40.5t-17 -41t-26.5 -36q-26 -26 -59 -36t-63 -14l-31 -4
l-21 81l20 5q17 5 32.5 12.5t28.5 19.5q32 30 41 77t15 107q3 31 8.5 100.5t8.5 185.5l3 113h367v-278h96q18 0 40 -1t45.5 -5.5t47 -14t44.5 -25.5q32 -25 53 -66t21 -96q0 -45 -15 -81.5t-38 -59.5q-21 -21 -48 -34t-55 -20t-55.5 -9t-49.5 -2h-201v598z" />
    <glyph glyph-name="afii10059" unicode="&#x40a;" horiz-adv-x="933" 
d="M621 94q27 0 58.5 5t54.5 27q14 14 22.5 35t8.5 47q0 22 -7.5 44t-22.5 37q-21 21 -47 26t-51 5h-91v-226h75zM431 320h-236v-320h-115v692h115v-278h236v278h115v-278h96q18 0 40 -1t45.5 -5.5t47 -14t44.5 -25.5q32 -25 53 -66t21 -96q0 -45 -15 -81.5t-38 -59.5
q-21 -21 -48 -34t-55 -20t-55.5 -9t-49.5 -2h-201v320z" />
    <glyph glyph-name="afii10060" unicode="&#x40b;" horiz-adv-x="653" 
d="M456 596h-186v-193q47 22 83.5 28t59.5 6q31 0 54.5 -5.5t40 -13t26 -15t14.5 -11.5q15 -14 30 -42.5t15 -77.5v-272h-115v241q0 14 -3.5 38t-21.5 43q-11 11 -29 18t-42 7t-54.5 -7.5t-57.5 -19.5v-320h-115v596h-165v96h481z" />
    <glyph glyph-name="afii10061" unicode="&#x40c;" horiz-adv-x="610" 
d="M577 622l-32 -8q-10 -2 -20.5 -5.5t-18.5 -11.5t-13 -20.5t-8 -24.5l-18 -72q-5 -22 -12.5 -43t-28.5 -41q-21 -19 -49 -28v-2q11 -4 21.5 -9.5t21.5 -15.5q20 -18 29 -37t15 -42l31 -111q10 -38 23 -49q6 -6 18.5 -12t23.5 -9l30 -9l-21 -81l-38 4q-12 1 -26.5 3
t-29 6.5t-28.5 11.5t-26 18q-20 20 -26 44t-11 46l-23 106q-4 16 -11 35.5t-21 32.5q-16 14 -35 17.5t-33 3.5h-66v-319h-115v692h115v-279h76q17 0 35.5 3.5t34.5 18.5q14 14 19 32t9 33l19 84q4 17 11.5 39.5t25.5 39.5q17 17 38 22t51 10l41 6zM239 720l-34 63l204 132
l50 -93z" />
    <glyph glyph-name="afii10062" unicode="&#x40e;" horiz-adv-x="519" 
d="M230 398q6 -17 11.5 -31.5t10.5 -28.5t9.5 -29.5t9.5 -34.5q7 30 13 50.5t11.5 36.5t10 29t9.5 27l93 275h121l-188 -523q-18 -51 -33.5 -86.5t-38.5 -56.5q-14 -13 -32 -22t-35 -14t-31.5 -8t-21.5 -4l-29 -4l-21 84l19 5q5 1 14.5 4t20 8t21.5 11.5t20 15.5
q12 13 20.5 31t16.5 41l11 32l-56 -7l-196 493h128zM428 845q-6 -17 -15.5 -32.5t-20.5 -26.5q-19 -20 -48 -32t-71 -12q-27 0 -60.5 9t-61.5 38q-11 11 -20 26t-15 30l57 31q8 -14 18.5 -24.5t20.5 -16.5q14 -9 29 -12t31 -3q17 0 31.5 3t28.5 12q6 4 17.5 14t21.5 28z" />
    <glyph glyph-name="afii10145" unicode="&#x40f;" horiz-adv-x="615" 
d="M195 692v-598h225v598h115v-692h-173v-176h-108v176h-174v692h115z" />
    <glyph glyph-name="afii10017" unicode="&#x410;" horiz-adv-x="577" 
d="M371 278q-23 78 -44 153t-38 147q-22 -78 -44 -153t-44 -147h170zM453 0l-56 182h-224l-56 -182h-119l227 692h133l221 -692h-126z" />
    <glyph glyph-name="afii10018" unicode="&#x411;" horiz-adv-x="599" 
d="M293 94q39 0 62.5 10t35.5 21q20 19 25 42.5t5 40.5q0 32 -9.5 51.5t-20.5 30.5q-20 20 -47.5 25t-50.5 5h-98v-226h98zM496 692l-15 -94h-286v-184h96q19 0 44.5 -1t52.5 -6.5t54.5 -18t50.5 -34.5q18 -18 29 -38.5t17 -41t8 -39t2 -33.5t-1.5 -32t-7 -35t-15 -36.5
t-25.5 -34.5q-21 -22 -48 -35t-55.5 -19.5t-57 -8t-53.5 -1.5h-206v692h416z" />
    <glyph glyph-name="afii10019" unicode="&#x412;" horiz-adv-x="601" 
d="M423 206q0 38 -18 66t-47 36q-13 4 -26 5t-38 1h-99v-220h102q66 0 96 32.5t30 79.5zM402 503q0 31 -15.5 54.5t-40.5 32.5q-11 4 -25.5 6t-39.5 2h-86v-190h95q32 0 50 4.5t35 21.5q16 17 21.5 36t5.5 33zM551 196q0 -103 -69 -149.5t-201 -46.5h-201v692h183
q39 0 66 -1.5t47.5 -5.5t36.5 -10.5t32 -16.5q78 -50 78 -136q0 -56 -30.5 -95t-88.5 -56q43 -11 71.5 -29.5t45 -42.5t23.5 -50.5t7 -52.5z" />
    <glyph glyph-name="afii10020" unicode="&#x413;" horiz-adv-x="471" 
d="M442 598h-247v-598h-115v692h376z" />
    <glyph glyph-name="afii10021" unicode="&#x414;" horiz-adv-x="636" 
d="M262 520q-5 -85 -14 -138.5t-16 -82.5q-8 -31 -25.5 -86t-52.5 -121h271v508h-158zM540 92h71v-266h-108v174h-390v-174h-108v266h45q32 64 53.5 127t35.5 127q14 63 20 129.5t9 137.5l3 79h369v-600z" />
    <glyph glyph-name="afii10022" unicode="&#x415;" horiz-adv-x="499" 
d="M80 0v692h384l-15 -94h-252v-189h211v-94h-211v-217h277v-98h-394z" />
    <glyph glyph-name="afii10024" unicode="&#x416;" horiz-adv-x="891" 
d="M863 623l-33 -8q-10 -2 -20 -7t-18 -12q-9 -9 -13.5 -21.5t-7.5 -23.5l-21 -78q-5 -16 -13 -38t-26 -40t-46 -28v-2q9 -3 20.5 -9t22.5 -17q19 -18 28 -38.5t14 -38.5l30 -107q4 -14 9 -28.5t16 -25.5q9 -9 24 -15t28 -9l19 -5l-21 -81l-46 5q-30 3 -54 9t-44 26
q-17 17 -26 40t-15 53l-21 99q-4 20 -10.5 40.5t-20.5 34.5q-17 16 -36.5 18.5t-34.5 2.5h-44v-319h-115v319h-44q-15 0 -34.5 -2.5t-36.5 -18.5q-14 -14 -20.5 -34.5t-10.5 -40.5l-21 -99q-6 -30 -15 -53t-26 -40q-20 -20 -44 -26t-54 -9l-46 -5l-21 81l19 5q13 3 28 9
t24 15q11 11 16 25.5t9 28.5l30 107q5 18 14 38.5t28 38.5q11 11 22.5 17t20.5 9v2q-28 10 -46 28t-26 40t-13 38l-21 78q-3 11 -7.5 23.5t-13.5 21.5q-8 7 -18 12t-20 7l-33 8l23 79l38 -6q27 -5 50.5 -10t43.5 -25q13 -12 20 -28t12 -40l21 -93q4 -15 10 -34t20 -32
q10 -9 26 -15t38 -6h58v279h115v-279h58q22 0 38 6t26 15q14 13 20 32t10 34l21 93q5 24 12 40t20 28q20 20 43.5 25t50.5 10l38 6z" />
    <glyph glyph-name="afii10025" unicode="&#x417;" horiz-adv-x="552" 
d="M161 313v88h70q35 0 56 8.5t32 18.5q14 12 22.5 33t8.5 47q0 28 -9 46t-20 28q-21 21 -47 25.5t-42 4.5q-20 0 -39 -3.5t-38 -11.5q-12 -5 -25.5 -13t-25.5 -18l-54 76q21 15 41.5 25t43.5 18q32 11 60 14t56 3q37 0 76.5 -7.5t76.5 -33.5q33 -24 52 -59t19 -84
q0 -32 -9 -59.5t-35 -52.5q-29 -29 -72 -42q25 -5 51.5 -16.5t46.5 -31.5q17 -17 31 -45t14 -72q0 -43 -15.5 -79t-41.5 -62q-22 -22 -47 -35.5t-51.5 -20.5t-52.5 -9.5t-49 -2.5q-29 0 -65 4t-72 18q-28 11 -49.5 24t-28.5 18l53 78q42 -32 81.5 -42t74.5 -10q26 0 51.5 6
t46.5 26t27 45t6 45q0 18 -5.5 40t-25.5 41q-24 22 -55.5 26t-59.5 4h-63z" />
    <glyph glyph-name="afii10026" unicode="&#x418;" horiz-adv-x="645" 
d="M450 0v397q0 13 0.5 30.5t1.5 37t2 38.5t2 34q-11 -33 -23.5 -62.5t-26.5 -57.5l-207 -417h-119v692h115v-401q0 -15 -0.5 -32.5t-1.5 -35.5t-2.5 -34.5t-2.5 -29.5q13 38 25.5 66.5t27.5 59.5l200 407h124v-692h-115z" />
    <glyph glyph-name="afii10027" unicode="&#x419;" horiz-adv-x="645" 
d="M479 841q-6 -17 -15.5 -32.5t-20.5 -26.5q-19 -20 -48 -32t-71 -12q-27 0 -60.5 9t-61.5 38q-11 11 -20 26t-15 30l57 31q8 -14 18.5 -24.5t20.5 -16.5q14 -9 29 -12t31 -3q17 0 31.5 3t28.5 12q6 4 17.5 14t21.5 28zM450 0v397q0 13 0.5 30.5t1.5 37t2 38.5t2 34
q-11 -33 -23.5 -62.5t-26.5 -57.5l-207 -417h-119v692h115v-401q0 -15 -0.5 -32.5t-1.5 -35.5t-2.5 -34.5t-2.5 -29.5q13 38 25.5 66.5t27.5 59.5l200 407h124v-692h-115z" />
    <glyph glyph-name="afii10028" unicode="&#x41a;" horiz-adv-x="610" 
d="M577 622l-32 -8q-10 -2 -20.5 -5.5t-18.5 -11.5t-13 -20.5t-8 -24.5l-18 -72q-5 -22 -12.5 -43t-28.5 -41q-21 -19 -49 -28v-2q11 -4 21.5 -9.5t21.5 -15.5q20 -18 29 -37t15 -42l31 -111q10 -38 23 -49q6 -6 18.5 -12t23.5 -9l30 -9l-21 -81l-38 4q-12 1 -26.5 3
t-29 6.5t-28.5 11.5t-26 18q-20 20 -26 44t-11 46l-23 106q-4 16 -11 35.5t-21 32.5q-16 14 -35 17.5t-33 3.5h-66v-319h-115v692h115v-279h76q17 0 35.5 3.5t34.5 18.5q14 14 19 32t9 33l19 84q4 17 11.5 39.5t25.5 39.5q17 17 38 22t51 10l41 6z" />
    <glyph glyph-name="afii10029" unicode="&#x41b;" horiz-adv-x="594" 
d="M247 486q0 -9 -1.5 -38t-4.5 -69t-7.5 -87.5t-10.5 -92.5q-2 -17 -5.5 -36.5t-10 -40.5t-17 -41t-26.5 -36q-26 -26 -59 -36t-63 -14l-31 -4l-21 81l20 5q17 5 32.5 12.5t28.5 19.5q32 30 41 77t15 107q3 31 8.5 100.5t8.5 185.5l3 113h367v-692h-115v598h-147z" />
    <glyph glyph-name="afii10030" unicode="&#x41c;" horiz-adv-x="816" 
d="M643 0l-32 429q-1 16 -2 34t-1.5 34.5t-1 30t-0.5 21.5q-4 -17 -10.5 -47.5t-16.5 -63.5l-126 -438h-98l-115 419q-5 17 -9.5 36.5t-8.5 37.5t-7.5 33t-4.5 24q0 -9 -0.5 -24.5t-1.5 -34t-2.5 -38t-2.5 -35.5l-30 -418h-113l63 692h153l106 -392q12 -44 17.5 -73t8.5 -45
q2 16 8.5 48t16.5 68l109 394h153l61 -692h-113z" />
    <glyph glyph-name="afii10031" unicode="&#x41d;" horiz-adv-x="626" 
d="M431 0v320h-236v-320h-115v692h115v-278h236v278h115v-692h-115z" />
    <glyph glyph-name="afii10032" unicode="&#x41e;" horiz-adv-x="678" 
d="M500 340q0 63 -7.5 113.5t-25.5 86.5t-49 55t-77 19q-89 0 -126 -67.5t-37 -191.5q0 -134 37.5 -205.5t128.5 -71.5q39 0 68 15t48.5 46.5t29.5 81t10 119.5zM628 346q0 -81 -19 -147t-55.5 -112.5t-89.5 -71.5t-120 -25q-74 0 -129 27t-92 74.5t-55 113t-18 142.5
q0 85 21 151t59 111.5t91 69t118 23.5q73 0 127.5 -27.5t90.5 -75.5t53.5 -113t17.5 -140z" />
    <glyph glyph-name="afii10033" unicode="&#x41f;" horiz-adv-x="606" 
d="M411 0v598h-216v-598h-115v692h446v-692h-115z" />
    <glyph glyph-name="afii10034" unicode="&#x420;" horiz-adv-x="555" 
d="M407 479q0 58 -28 87q-16 17 -39 25.5t-57 8.5h-88v-244h88q64 0 94 30t30 93zM535 485q0 -51 -17.5 -92t-47.5 -69.5t-71 -44t-88 -15.5h-116v-264h-115v692h184q38 0 65 -2t47 -6t35 -10t29 -15q46 -27 70.5 -72t24.5 -102z" />
    <glyph glyph-name="afii10035" unicode="&#x421;" horiz-adv-x="567" 
d="M537 51q-80 -61 -189 -61q-69 0 -123.5 25.5t-95.5 74.5q-79 96 -79 244q0 123 46 209q39 75 106.5 117t148.5 42q51 0 96 -14t76 -40l-53 -75q-28 20 -57 29.5t-61 9.5q-45 0 -80 -21.5t-58 -61.5q-18 -32 -27 -76t-9 -105q0 -62 6.5 -101.5t20.5 -68.5q23 -50 63 -74
t91 -24q37 0 66 10.5t58 33.5z" />
    <glyph glyph-name="afii10036" unicode="&#x422;" horiz-adv-x="474" 
d="M479 596h-174v-596h-115v596h-175v96h479z" />
    <glyph glyph-name="afii10037" unicode="&#x423;" horiz-adv-x="519" 
d="M230 398q6 -17 11.5 -31.5t10.5 -28.5t9.5 -29.5t9.5 -34.5q7 30 13 50.5t11.5 36.5t10 29t9.5 27l93 275h121l-188 -523q-18 -51 -33.5 -86.5t-38.5 -56.5q-14 -13 -32 -22t-35 -14t-31.5 -8t-21.5 -4l-29 -4l-21 84l19 5q5 1 14.5 4t20 8t21.5 11.5t20 15.5
q12 13 20.5 31t16.5 41l11 32l-56 -7l-196 493h128z" />
    <glyph glyph-name="afii10038" unicode="&#x424;" horiz-adv-x="749" 
d="M309 550q-21 0 -47.5 -6t-48.5 -28q-14 -14 -22 -33t-12.5 -40t-5.5 -42.5t-1 -39.5q0 -14 1 -32t5 -37t12 -37.5t22 -33.5q24 -25 52 -30t45 -5h13v364h-13zM427 186h13q17 0 45 5t52 30q14 15 22 33.5t12 37.5t5 37t1 32q0 18 -1 39.5t-5.5 42.5t-12.5 40t-22 33
q-22 22 -48.5 28t-47.5 6h-13v-364zM317 0v106h-10q-15 0 -37.5 1.5t-48.5 8.5t-53 21t-51 38q-11 11 -23 28t-22 40t-16 53.5t-6 69.5q0 75 20.5 123.5t48.5 75.5q24 24 51.5 37t54 19t48.5 7.5t35 1.5h9v103h115v-103h9q13 0 35 -1.5t48 -7.5t54 -19t52 -37
q28 -27 48.5 -75.5t20.5 -123.5q0 -39 -6.5 -69.5t-16 -53.5t-21.5 -40t-23 -28q-24 -24 -51 -38t-53 -21t-48.5 -8.5t-37.5 -1.5h-10v-106h-115z" />
    <glyph glyph-name="afii10039" unicode="&#x425;" horiz-adv-x="540" 
d="M412 0l-143 274l-138 -274h-141l212 371l-186 321h140l111 -214l109 214h136l-176 -313l214 -379h-138z" />
    <glyph glyph-name="afii10040" unicode="&#x426;" horiz-adv-x="631" 
d="M195 692v-598h225v598h115v-598h71v-270h-108v176h-418v692h115z" />
    <glyph glyph-name="afii10041" unicode="&#x427;" horiz-adv-x="580" 
d="M385 0v297q-39 -19 -76.5 -25.5t-72.5 -6.5q-33 0 -70 8.5t-68 39.5q-29 29 -36 60.5t-7 61.5v257h115v-225q0 -20 3.5 -43.5t20.5 -41.5q8 -8 26 -17.5t53 -9.5q10 0 40.5 3.5t71.5 20.5v313h115v-692h-115z" />
    <glyph glyph-name="afii10042" unicode="&#x428;" horiz-adv-x="885" 
d="M195 94h190v598h115v-598h190v598h115v-692h-725v692h115v-598z" />
    <glyph glyph-name="afii10043" unicode="&#x429;" horiz-adv-x="904" 
d="M195 94h191v598h115v-598h191v598h115v-598h72v-270h-108v176h-691v692h115v-598z" />
    <glyph glyph-name="afii10044" unicode="&#x42a;" horiz-adv-x="701" 
d="M389 94q27 0 58.5 5t54.5 27q14 14 22.5 35t8.5 47q0 22 -7.5 44t-22.5 37q-21 21 -47 26t-51 5h-91v-226h75zM199 598h-192l-7 94h314v-278h96q18 0 40 -1t45.5 -5.5t47 -14t44.5 -25.5q32 -25 53 -66t21 -96q0 -45 -15 -81.5t-38 -59.5q-21 -21 -48 -34t-55 -20
t-55.5 -9t-49.5 -2h-201v598z" />
    <glyph glyph-name="afii10045" unicode="&#x42b;" horiz-adv-x="826" 
d="M270 94q27 0 58.5 5t54.5 27q14 13 22.5 34.5t8.5 49.5q0 27 -8.5 47t-21.5 32q-23 22 -54 26.5t-55 4.5h-80v-226h75zM746 692v-692h-115v692h115zM195 692v-278h90q18 0 40 -1t45.5 -5.5t47 -14t44.5 -25.5q32 -25 53 -66t21 -96q0 -45 -15 -81.5t-38 -59.5
q-21 -21 -48 -34t-55 -20t-55.5 -9t-49.5 -2h-195v692h115z" />
    <glyph glyph-name="afii10046" unicode="&#x42c;" horiz-adv-x="582" 
d="M270 94q27 0 58.5 5t54.5 27q14 14 22.5 35t8.5 47q0 22 -7.5 44t-22.5 37q-21 21 -47 26t-51 5h-91v-226h75zM80 692h115v-278h96q18 0 40 -1t45.5 -5.5t47 -14t44.5 -25.5q32 -25 53 -66t21 -96q0 -45 -15 -81.5t-38 -59.5q-21 -21 -48 -34t-55 -20t-55.5 -9t-49.5 -2
h-201v692z" />
    <glyph glyph-name="afii10047" unicode="&#x42d;" horiz-adv-x="575" 
d="M395 408v4q0 43 -11 88t-40 73q-26 26 -57 32.5t-55 6.5q-23 0 -42 -3t-40 -12q-20 -8 -35.5 -18.5t-19.5 -13.5l-48 76q14 11 35 22.5t41 19.5q49 19 111 19q60 0 108 -18t89 -59q30 -30 48.5 -64.5t28.5 -70.5t13.5 -73t3.5 -73q0 -33 -3 -68t-12.5 -70.5t-27 -69.5
t-46.5 -64q-26 -27 -54.5 -43t-56.5 -25t-54.5 -11.5t-49.5 -2.5q-33 0 -62 5t-59 17q-21 8 -38 18.5t-32 23.5l53 80q11 -10 25.5 -19.5t28.5 -16.5q24 -11 45.5 -14.5t44.5 -3.5q33 0 64 8t57 39q16 18 25.5 41t14.5 47.5t7 48.5t2 44v10h-224v90h222z" />
    <glyph glyph-name="afii10048" unicode="&#x42e;" horiz-adv-x="913" 
d="M735 346q0 33 -2 66.5t-8 64.5t-17.5 57.5t-30.5 45.5q-23 22 -48 28t-47 6t-47 -6t-48 -28q-20 -19 -31.5 -45.5t-17.5 -57.5t-7.5 -64.5t-1.5 -66.5t1.5 -66.5t7.5 -64.5t17.5 -57.5t31.5 -45.5q23 -22 48 -28t47 -6t47 6t48 28q19 19 30.5 45.5t17.5 57.5t8 64.5
t2 66.5zM306 414q1 19 5.5 45.5t14.5 55.5t26 58.5t40 54.5q41 42 89 58t99 16q59 0 104.5 -17t83.5 -56q32 -33 51 -71t28.5 -76t12.5 -73t3 -61q0 -30 -3.5 -66.5t-14 -74.5t-30 -75.5t-51.5 -69.5q-41 -40 -85 -56t-98 -16q-45 0 -91 13t-88 54q-25 24 -43 55.5t-30 66.5
t-17.5 71t-5.5 70h-111v-320h-115v692h115v-278h111z" />
    <glyph glyph-name="afii10049" unicode="&#x42f;" horiz-adv-x="606" 
d="M328 600q-18 0 -45.5 -4.5t-48.5 -25.5q-10 -9 -19 -27.5t-9 -48.5q0 -17 5.5 -40t25.5 -41q23 -20 51.5 -23.5t51.5 -3.5h71v214h-83zM411 0v294h-55q-9 0 -20 -0.5t-23.5 -2.5t-24.5 -7.5t-22 -14.5q-17 -15 -24 -36.5t-11 -38.5l-15 -72q-5 -25 -13.5 -49t-26.5 -42
q-21 -20 -46.5 -25.5t-48.5 -8.5l-50 -6l-21 81l25 7q11 3 24.5 9t21.5 13q12 11 18 27t9 27l19 74q10 38 23 56.5t17 22.5q11 11 27.5 19.5t30.5 12.5v3q-4 1 -14 3t-23.5 7t-29 13.5t-29.5 22.5q-15 15 -30.5 43.5t-15.5 76.5q0 43 14 73.5t36 51.5q20 19 43.5 30.5
t48 17.5t48 8t44.5 2h209v-692h-115z" />
    <glyph glyph-name="afii10065" unicode="&#x430;" horiz-adv-x="515" 
d="M327 238l-7 0.5t-13 0.5q-41 0 -68.5 -6t-44 -18t-23.5 -30t-7 -42q0 -36 18.5 -56t51.5 -20q26 0 50 13.5t41 37.5zM421 -21q-23 9 -41.5 26.5t-27.5 41.5q-31 -35 -64.5 -47.5t-74.5 -12.5q-87 0 -127.5 42t-40.5 108q0 88 64 132t186 44h34v27q0 44 -12.5 66.5
t-57.5 22.5q-27 0 -54 -9t-48.5 -20t-35 -20l-13.5 -9l-49 79q57 36 107.5 52.5t107.5 16.5q120 0 154 -84q3 -8 5 -18t2.5 -24t0.5 -34v-48l-2 -145q0 -26 1 -43.5t6 -30.5t13.5 -23t23.5 -20z" />
    <glyph glyph-name="afii10066" unicode="&#x431;" horiz-adv-x="543" 
d="M274 424q-22 0 -41.5 -8.5t-34.5 -33.5q-8 -13 -13 -30t-8 -35.5t-4 -37t-1 -33.5q0 -17 1.5 -36t4.5 -37t8 -34t12 -28q15 -25 35 -33.5t41 -8.5q22 0 41.5 8.5t34.5 33.5q8 13 13 30t8 35.5t4 36.5t1 33q0 14 -1.5 32.5t-4.5 37t-8 36t-12 30.5q-15 25 -35 33.5
t-41 8.5zM481 685q-14 -10 -27 -16t-30 -14q-19 -8 -33.5 -13.5t-25.5 -10.5l-131 -54q-28 -12 -45 -29t-26.5 -35t-13.5 -34.5t-5 -27.5l-4 -31l5 -1q19 34 50 56q23 17 48 24t54 7q54 0 89 -21.5t55 -45.5q7 -8 16.5 -23t18.5 -38.5t15.5 -55t6.5 -73.5q0 -74 -19.5 -120
t-40.5 -71q-25 -29 -65 -50t-100 -21q-47 0 -88 16t-74 55q-22 26 -34 55.5t-18 61.5t-7.5 65.5t-1.5 67.5q0 45 3.5 99.5t20.5 108.5q10 30 24 54t37 47q26 25 54 41.5t55 27.5l158 67l39 21z" />
    <glyph glyph-name="afii10067" unicode="&#x432;" horiz-adv-x="526" 
d="M184 74h80q18 0 38 4t34 16t17 26t3 27q0 15 -4.5 33.5t-21.5 31.5q-14 11 -32.5 13t-33.5 2h-80v-153zM184 299h71q14 0 33.5 3t33.5 17q11 11 14.5 23.5t3.5 23.5t-3.5 25t-15.5 25q-13 11 -29.5 13.5t-32.5 2.5h-75v-133zM285 506q13 0 30 -1t34.5 -5t35 -12t31.5 -22
q21 -21 27 -45t6 -43q0 -24 -6.5 -42.5t-21.5 -35.5q-8 -9 -20.5 -18t-29.5 -14q28 -5 44.5 -17t21.5 -17q19 -19 26.5 -40.5t7.5 -47.5q0 -43 -14 -68t-27 -37q-3 -3 -12 -9.5t-25 -13.5t-38.5 -12.5t-53.5 -5.5h-226v506h210z" />
    <glyph glyph-name="afii10068" unicode="&#x433;" horiz-adv-x="411" 
d="M184 0h-109v506h316l-13 -82h-194v-424z" />
    <glyph glyph-name="afii10069" unicode="&#x434;" horiz-adv-x="524" 
d="M219 426l-2 -47q-2 -41 -7.5 -82.5t-13.5 -76.5q-9 -36 -23.5 -72.5t-30.5 -67.5h190v346h-113zM504 -143h-102v143h-295v-143h-102v223h39q24 43 40 86t26 83q12 51 16 96t5 87l2 74h308v-426h63v-223z" />
    <glyph glyph-name="afii10070" unicode="&#x435;" horiz-adv-x="513" 
d="M359 306q0 62 -24.5 96.5t-66.5 34.5q-47 0 -71.5 -34.5t-24.5 -96.5h187zM171 224v-9q0 -26 5.5 -52t20 -46.5t38.5 -33t61 -12.5q68 0 126 50l43 -67q-79 -67 -182 -67q-54 0 -97 18.5t-73 53t-46.5 84t-16.5 110.5q0 67 15 113.5t48 84.5q31 35 69 51.5t86 16.5
q38 0 72.5 -11.5t66.5 -40.5q33 -30 49.5 -81t16.5 -139v-23h-302z" />
    <glyph glyph-name="afii10072" unicode="&#x436;" horiz-adv-x="713" 
d="M411 518v-212h39q21 0 32 6.5t14 9.5q9 9 13 22t6 24l12 56q6 29 15.5 42.5t14.5 18.5q8 8 23.5 16.5t44.5 10.5l47 4l20 -75l-26 -5q-19 -4 -28 -13q-7 -6 -10 -14t-5 -15l-18 -58q-4 -12 -8.5 -22.5t-15.5 -21.5q-12 -12 -24.5 -16.5t-17.5 -6.5v-2q21 -6 38 -22
q11 -11 18.5 -26.5t12.5 -30.5l21 -63q4 -11 7.5 -21t12.5 -18q7 -6 18.5 -11t22.5 -7l13 -3l-20 -75l-38 3q-23 2 -47.5 7.5t-42.5 22.5q-15 14 -21.5 33.5t-9.5 33.5l-12 60q-3 14 -7 30.5t-17 28.5q-12 11 -25.5 13t-25.5 2h-26v-224h-109v224h-26q-12 0 -25.5 -2
t-25.5 -13q-13 -12 -17 -28.5t-7 -30.5l-12 -60q-3 -14 -9.5 -33.5t-21.5 -33.5q-18 -17 -42.5 -22.5t-47.5 -7.5l-38 -3l-20 75l13 3q11 2 22.5 7t18.5 11q9 8 12.5 18t7.5 21l21 63q5 15 12.5 30.5t18.5 26.5q17 16 38 22v2q-5 2 -17.5 6.5t-24.5 16.5q-11 11 -15.5 21.5
t-8.5 22.5l-18 58q-2 7 -5 15t-10 14q-9 9 -28 13l-26 5l20 75l47 -4q29 -2 44.5 -10.5t23.5 -16.5q5 -5 14.5 -18.5t15.5 -42.5l12 -56q2 -11 6 -24t13 -22q3 -3 14 -9.5t32 -6.5h39v191z" />
    <glyph glyph-name="afii10073" unicode="&#x437;" horiz-adv-x="448" 
d="M190 306q14 0 32.5 3t32.5 17q18 17 18 44q0 12 -3 23t-14 21q-11 11 -28.5 16t-36.5 5q-24 0 -41.5 -5.5t-23.5 -7.5q-11 -5 -23.5 -12t-22.5 -14l-44 69q15 11 33 20.5t37 16.5q28 11 54.5 14t50.5 3q32 0 71 -8.5t68 -36.5q14 -13 26.5 -36t12.5 -58q0 -49 -35 -83
q-8 -8 -20 -16t-29 -13q37 -9 64 -36q14 -14 24 -34.5t10 -50.5q0 -34 -12.5 -62t-32.5 -47q-25 -24 -64 -37.5t-90 -13.5q-54 0 -86.5 10t-51.5 21q-15 8 -26.5 17t-19.5 15l48 71q23 -20 50 -33q35 -17 74 -17q24 0 40.5 6t26.5 15q11 10 17 25t6 30q0 18 -6 31.5
t-15 21.5q-17 15 -39 18.5t-36 3.5h-54v84h58z" />
    <glyph glyph-name="afii10074" unicode="&#x438;" 
d="M75 498l109 21v-265q0 -27 -1 -57.5t-3 -56.5h2q14 37 27.5 66t26.5 52l135 241l114 20v-519h-109v230q0 37 1 66.5t4 64.5h-2q-11 -30 -25 -60t-26 -52l-139 -249h-114v498z" />
    <glyph glyph-name="afii10075" unicode="&#x439;" 
d="M439 668q-13 -35 -31 -53.5t-25 -23.5q-26 -20 -53.5 -25.5t-50.5 -5.5t-50.5 5.5t-53.5 25.5q-7 5 -25 23.5t-31 53.5l55 31q4 -5 9.5 -12.5t11.5 -14.5q12 -13 32 -23t54 -10q31 0 49.5 9.5t32.5 23.5q6 7 11.5 14.5t9.5 12.5zM75 498l109 21v-265q0 -27 -1 -57.5
t-3 -56.5h2q14 37 27.5 66t26.5 52l135 241l114 20v-519h-109v230q0 37 1 66.5t4 64.5h-2q-11 -30 -25 -60t-26 -52l-139 -249h-114v498z" />
    <glyph glyph-name="afii10076" unicode="&#x43a;" horiz-adv-x="518" 
d="M75 497l109 21v-212h47q14 0 29.5 2t26.5 13q14 14 21 47l13 57q3 14 8 29t19 29q15 16 34 21t47 8l37 4l20 -75l-25 -5l-14 -4t-14 -8q-8 -7 -11.5 -16t-6.5 -18l-16 -54q-8 -29 -25 -46q-2 -2 -12.5 -9.5t-27.5 -11.5v-2q13 -3 22 -9t15 -11q11 -11 18 -25.5t12 -28.5
l25 -75q5 -16 10.5 -23.5t8.5 -10.5q8 -8 17.5 -10.5t15.5 -4.5l20 -4l-20 -75l-34 3q-26 2 -51 6.5t-45 23.5q-15 15 -21.5 34t-9.5 33l-16 71q-3 14 -8 28t-15 22q-11 10 -24 11.5t-25 1.5h-45v-224h-109v497z" />
    <glyph glyph-name="afii10077" unicode="&#x43b;" horiz-adv-x="529" 
d="M454 506v-506h-109v424h-114l-4 -55q-2 -23 -4 -53t-5 -64l-2.5 -27.5t-3.5 -34.5t-4.5 -36t-4.5 -31q-3 -20 -11 -46t-28 -46q-12 -11 -25.5 -18t-27.5 -11t-27.5 -6t-24.5 -3l-27 -3l-22 75l22 5q12 3 26 10t23 16q23 23 27.5 63t9.5 87q3 25 4.5 45.5t3 39t2.5 38
t3 42.5l6 95h317z" />
    <glyph glyph-name="afii10078" unicode="&#x43c;" horiz-adv-x="685" 
d="M234 506l81 -266q8 -26 14 -45t12 -48q8 32 14 51.5t12 39.5l83 268h134l51 -506h-103l-25 295q-1 13 -1.5 30t-0.5 55h-4q-6 -30 -12 -51t-8 -27l-99 -302h-87l-92 293q-10 30 -15 50.5t-8 36.5h-4v-17v-22t-0.5 -23.5t-1.5 -18.5l-23 -299h-101l50 506h134z" />
    <glyph glyph-name="afii10079" unicode="&#x43d;" horiz-adv-x="539" 
d="M184 0h-109v497l109 21v-208h171v187l109 21v-518h-109v228h-171v-228z" />
    <glyph glyph-name="afii10080" unicode="&#x43e;" horiz-adv-x="537" 
d="M370 251q0 54 -7.5 89.5t-21 57t-32.5 30.5t-43 9q-52 0 -75.5 -41.5t-23.5 -134.5q0 -56 7 -93t20 -59t32 -31t43 -9q49 0 75 42.5t26 139.5zM492 252q0 -62 -15.5 -111t-45 -83t-71 -52.5t-92.5 -18.5t-92.5 18.5t-70.5 53t-44.5 84t-15.5 110.5t15.5 110t44.5 83.5
t70 53.5t91 19q54 0 96 -19t71 -54.5t44 -84.5t15 -109z" />
    <glyph glyph-name="afii10081" unicode="&#x43f;" horiz-adv-x="530" 
d="M75 0v506h380v-506h-109v424h-162v-424h-109z" />
    <glyph glyph-name="afii10082" unicode="&#x440;" horiz-adv-x="550" 
d="M186 125q20 -19 45 -32t56 -13q34 0 56 21q16 15 25 35t13.5 41t5 41t0.5 35q0 49 -6.5 88t-28.5 62q-13 14 -27 18.5t-30 4.5q-38 0 -65 -17.5t-44 -34.5v-249zM171 519q8 -34 8 -60q29 34 66 47t69 13q45 0 75 -15.5t48 -33.5q13 -13 25 -31.5t21.5 -44t15.5 -59
t6 -76.5q0 -84 -21 -138.5t-52 -84.5q-18 -17 -49.5 -33t-80.5 -16q-19 0 -51 7t-68 35q2 -17 2.5 -36t0.5 -33v-148l-106 -27v590q0 51 -3 80t-7 46z" />
    <glyph glyph-name="afii10083" unicode="&#x441;" horiz-adv-x="457" 
d="M427 54q-35 -35 -73 -51t-89 -16q-104 0 -159.5 68.5t-55.5 191.5q0 69 19 120t50 85t71.5 50.5t82.5 16.5t74 -11.5t66 -43.5l-55 -73q-43 39 -85 39q-55 0 -80 -51q-11 -23 -16 -58t-5 -83q0 -101 34 -138q26 -29 67 -29q52 0 102 50z" />
    <glyph glyph-name="afii10084" unicode="&#x442;" horiz-adv-x="380" 
d="M240 0h-109v424h-136v82h390l-14 -82h-131v-424z" />
    <glyph glyph-name="afii10085" unicode="&#x443;" horiz-adv-x="483" 
d="M478 506l-187 -540q-10 -29 -20 -50t-19 -35.5t-16.5 -24t-13.5 -15.5q-24 -25 -52 -36.5t-68 -20.5l-36 71q37 10 55.5 21.5t28.5 22.5q9 9 24.5 32.5t28.5 68.5h-35q-14 54 -24.5 85.5t-18.5 57.5l-120 355l112 19l93 -308q3 -10 6.5 -24t7.5 -29.5t7 -31t6 -28.5h2
q8 35 18 70.5t19 65.5l84 274h118z" />
    <glyph glyph-name="afii10086" unicode="&#x444;" horiz-adv-x="739" 
d="M315 398q-10 9 -28 20.5t-44 11.5q-17 0 -31.5 -6.5t-26.5 -23.5q-14 -20 -19 -52t-5 -87q0 -63 4.5 -97.5t17.5 -54.5q8 -13 23 -23.5t40 -10.5q24 0 41.5 9.5t27.5 18.5v295zM424 103q10 -9 27.5 -18.5t41.5 -9.5q25 0 40 10.5t23 23.5q13 20 17.5 54.5t4.5 97.5
q0 55 -5 87t-19 52q-12 17 -26.5 23.5t-31.5 6.5q-26 0 -44 -11.5t-28 -20.5v-295zM424 482q18 16 41 26t55 10q35 0 64.5 -14t54.5 -45q19 -24 30 -50t16.5 -52.5t7 -51t1.5 -44.5q0 -24 -2 -50.5t-7.5 -53.5t-15.5 -53.5t-26 -48.5q-49 -68 -130 -68q-53 0 -89 30v-217
h-109v217q-36 -30 -89 -30q-81 0 -130 68q-16 22 -26 48.5t-15.5 53.5t-7.5 53.5t-2 50.5q0 20 1.5 44.5t7 51t16.5 52.5t30 50q25 31 54.5 45t64.5 14q32 0 55 -10t41 -26v230l109 25v-255z" />
    <glyph glyph-name="afii10087" unicode="&#x445;" horiz-adv-x="477" 
d="M349 0q-7 11 -23.5 39.5t-34.5 59.5t-33 57t-19 33q-7 -14 -22.5 -41.5t-32.5 -57t-32.5 -55t-22.5 -35.5h-139l188 274l-146 217l119 24q9 -14 21 -35t24.5 -43.5l25 -45t21.5 -40.5q5 12 16 35t23.5 47t23.5 44.5t17 28.5h128l-149 -230l185 -276h-138z" />
    <glyph glyph-name="afii10088" unicode="&#x446;" horiz-adv-x="538" 
d="M450 518v-436h63v-225h-102v143h-336v497l109 21v-436h157v415z" />
    <glyph glyph-name="afii10089" unicode="&#x447;" horiz-adv-x="489" 
d="M414 518v-518h-109v202q-29 -11 -52.5 -16t-51.5 -5q-12 0 -27.5 1.5t-31.5 5.5t-32 12t-29 21q-26 26 -31 54.5t-5 52.5v169l109 21v-178q0 -14 2.5 -30.5t17.5 -30.5q11 -10 26 -13t29 -3q17 0 35.5 3t40.5 14v217z" />
    <glyph glyph-name="afii10090" unicode="&#x448;" horiz-adv-x="753" 
d="M184 518v-436h138v415l109 21v-436h138v415l109 21v-518h-603v497z" />
    <glyph glyph-name="afii10091" unicode="&#x449;" horiz-adv-x="766" 
d="M184 518v-436h138v415l109 21v-436h138v415l109 21v-436h63v-225h-102v143h-564v497z" />
    <glyph glyph-name="afii10092" unicode="&#x44a;" horiz-adv-x="553" 
d="M247 78h63q17 0 37 3.5t35 18.5q14 14 17 30.5t3 27.5q0 12 -3.5 29.5t-17.5 31.5q-16 15 -36.5 18.5t-37.5 3.5h-60v-163zM320 319q15 0 35 -1t41 -5.5t42 -14.5t39 -28q27 -28 34 -59t7 -54q0 -43 -12.5 -69.5t-26.5 -41.5q-27 -28 -65.5 -37t-84.5 -9h-191v424h-129
l-9 82h247v-187h73z" />
    <glyph glyph-name="afii10093" unicode="&#x44b;" horiz-adv-x="712" 
d="M184 78h57q18 0 38 3.5t36 18.5q14 13 17 29t3 28q0 26 -7.5 41t-15.5 23q-14 14 -34 17t-37 3h-57v-163zM637 518v-518h-109v497zM184 518v-199h69q15 0 35 -1t41 -5.5t42 -14.5t39 -28q27 -28 34 -59t7 -54q0 -43 -12.5 -69.5t-26.5 -41.5q-27 -28 -65.5 -37t-84.5 -9
h-187v497z" />
    <glyph glyph-name="afii10094" unicode="&#x44c;" horiz-adv-x="490" 
d="M184 78h63q17 0 37 3.5t35 18.5q14 14 17 30.5t3 27.5q0 12 -3.5 29.5t-17.5 31.5q-16 15 -36.5 18.5t-37.5 3.5h-60v-163zM184 518v-199h73q15 0 35 -1t41 -5.5t42 -14.5t39 -28q27 -28 34 -59t7 -54q0 -43 -12.5 -69.5t-26.5 -41.5q-27 -28 -65.5 -37t-84.5 -9h-191
v497z" />
    <glyph glyph-name="afii10095" unicode="&#x44d;" horiz-adv-x="467" 
d="M155 306h145v9q0 36 -9.5 59t-21.5 36q-17 17 -36 22t-36 5q-33 0 -61 -14q-21 -10 -39 -28l-53 66q9 8 26 19.5t40 21.5q25 11 47 14t46 3q35 0 73.5 -9.5t73.5 -44.5q23 -23 37.5 -50.5t22 -56.5t10 -57t2.5 -52q0 -22 -2 -48t-9 -53t-19 -53t-33 -48
q-18 -20 -39 -31.5t-41.5 -18t-40.5 -8.5t-37 -2q-26 0 -54.5 5t-54.5 18q-17 8 -33 20t-29 25l53 65q14 -14 25.5 -21.5t13.5 -9.5q31 -20 72 -20q14 0 36.5 4t39.5 22q21 22 25.5 55t4.5 59v15h-145v82z" />
    <glyph glyph-name="afii10096" unicode="&#x44e;" horiz-adv-x="740" 
d="M379 253q0 -59 7 -98.5t28 -61.5q15 -15 31 -19.5t30 -4.5t30 4.5t31 19.5q21 22 28 61.5t7 98.5t-7 98.5t-28 61.5q-15 15 -31 19.5t-30 4.5t-30 -4.5t-31 -19.5q-21 -22 -28 -61.5t-7 -98.5zM265 307q2 48 19.5 88.5t43.5 67.5q25 25 60.5 40.5t86.5 15.5q57 0 94 -19
t57 -40q22 -22 35.5 -49t21 -54.5t10 -55t2.5 -50.5q0 -24 -2.5 -51.5t-9.5 -55t-20 -53.5t-34 -48q-34 -35 -73 -45.5t-74 -10.5q-17 0 -36 2t-39.5 8t-40.5 17.5t-38 30.5q-20 21 -32.5 45.5t-19 49.5t-9.5 47t-3 38h-80v-225h-109v498l109 21v-212h81z" />
    <glyph glyph-name="afii10097" unicode="&#x44f;" horiz-adv-x="514" 
d="M267 426q-12 0 -31.5 -2.5t-34.5 -16.5q-13 -12 -16.5 -27t-3.5 -26q0 -13 3.5 -27.5t16.5 -26.5q11 -10 28 -16t39 -6h62v148h-63zM439 0h-109v200h-46q-14 0 -27.5 -2.5t-25.5 -13.5q-11 -10 -15 -23t-7 -24l-14 -50q-5 -16 -11 -32.5t-19 -29.5q-10 -10 -22.5 -16
t-25.5 -9.5t-24.5 -4.5t-19.5 -2l-39 -3l-19 75l16 4q17 5 26 10t13 8q9 8 13.5 18.5t8.5 21.5l15 45q5 13 10 23.5t16 20.5q19 19 42 23v2q-26 2 -45 12.5t-32 23.5q-14 14 -23 35.5t-9 51.5q0 38 12.5 61.5t26.5 36.5q31 29 71 36.5t76 7.5h187v-506z" />
    <glyph glyph-name="afii10071" unicode="&#x451;" horiz-adv-x="513" 
d="M359 306q0 62 -24.5 96.5t-66.5 34.5q-47 0 -71.5 -34.5t-24.5 -96.5h187zM171 224v-9q0 -26 5.5 -52t20 -46.5t38.5 -33t61 -12.5q68 0 126 50l43 -67q-79 -67 -182 -67q-54 0 -97 18.5t-73 53t-46.5 84t-16.5 110.5q0 67 15 113.5t48 84.5q31 35 69 51.5t86 16.5
q38 0 72.5 -11.5t66.5 -40.5q33 -30 49.5 -81t16.5 -139v-23h-302zM232 648q0 -28 -19 -47.5t-45 -19.5t-44.5 19.5t-18.5 47.5t18.5 47t44.5 19t45 -19t19 -47zM431 648q0 -28 -19 -47.5t-45 -19.5t-45 19.5t-19 47.5t19 47t46 19q26 0 44.5 -19t18.5 -47z" />
    <glyph glyph-name="afii10099" unicode="&#x452;" horiz-adv-x="579" 
d="M386 620l-23 -64h-159v-58l-3 -54q29 26 69 44.5t89 18.5q29 0 57.5 -9t47.5 -29q12 -13 19 -28.5t10.5 -31t4.5 -30t1 -25.5v-286q0 -24 -1 -50.5t-5.5 -53t-14 -52t-25.5 -47.5q-14 -20 -38.5 -41t-59.5 -34l-48 64q16 10 29 22t24 29q22 32 26 63t4 72v294
q0 16 -1.5 33.5t-14.5 30.5q-7 7 -18.5 11.5t-28.5 4.5q-20 0 -36.5 -5.5t-30.5 -13.5q-17 -8 -30 -18t-26 -24v-353h-109v556h-55v64h55v117l109 -17v-100h182z" />
    <glyph glyph-name="afii10100" unicode="&#x453;" horiz-adv-x="411" 
d="M184 0h-109v506h316l-13 -82h-194v-424zM139 560l-34 63l204 132l50 -93z" />
    <glyph glyph-name="afii10101" unicode="&#x454;" horiz-adv-x="467" 
d="M167 219v-10q0 -26 4.5 -59t25.5 -55q17 -18 39.5 -22t36.5 -4q41 0 72 20q2 2 13.5 9.5t25.5 21.5l53 -65q-13 -13 -29 -25t-33 -20q-26 -13 -54.5 -18t-54.5 -5q-17 0 -37 2t-40.5 8.5t-41.5 18t-39 31.5q-21 22 -33 48t-19 53t-9 53t-2 48q0 24 2.5 52t10 57t22 56.5
t37.5 50.5q35 35 73.5 44.5t73.5 9.5q24 0 46 -3t47 -14q23 -10 40 -21.5t26 -19.5l-53 -66q-18 18 -39 28q-28 14 -61 14q-17 0 -36 -5t-36 -22q-12 -13 -21.5 -36t-9.5 -59v-14h145v-82h-145z" />
    <glyph glyph-name="afii10102" unicode="&#x455;" horiz-adv-x="474" 
d="M434 158q0 -38 -15 -70t-42 -54.5t-64.5 -35t-83.5 -12.5q-47 0 -96 14.5t-98 41.5l39 79q34 -20 77.5 -36.5t86.5 -16.5q36 0 59 19.5t23 51.5q0 29 -19.5 45.5t-62.5 25.5l-61 13q-57 12 -89 48.5t-32 90.5q0 36 13.5 65t38.5 49.5t59.5 31.5t76.5 11q52 0 93.5 -13.5
t73.5 -30.5l-36 -76q-35 20 -64.5 29t-59.5 9q-35 0 -56 -16t-21 -45q0 -24 15 -37.5t53 -23.5l63 -16q38 -10 63 -25t39.5 -33.5t20.5 -39.5t6 -43z" />
    <glyph glyph-name="afii10103" unicode="&#x456;" horiz-adv-x="271" 
d="M81 0v498l109 20v-518h-109zM209 654q0 -30 -21.5 -51.5t-52.5 -21.5q-30 0 -50.5 21.5t-20.5 51.5q0 31 21 52.5t52 21.5q29 0 50.5 -21t21.5 -53z" />
    <glyph glyph-name="afii10104" unicode="&#x457;" horiz-adv-x="271" 
d="M122 648q0 -28 -16.5 -47.5t-38.5 -19.5q-23 0 -39 19.5t-16 47.5t16 47t39 19q22 0 38.5 -19t16.5 -47zM259 648q0 -28 -16 -47.5t-39 -19.5q-22 0 -38.5 19.5t-16.5 47.5t16.5 47t39.5 19t38.5 -19t15.5 -47zM81 0v498l109 20v-518h-109z" />
    <glyph glyph-name="afii10105" unicode="&#x458;" horiz-adv-x="271" 
d="M189 12q0 -67 -12 -101t-25 -51q-17 -22 -40.5 -40t-54.5 -32l-45 64q20 14 33 29t21 33.5t11 42t3 54.5v487l109 20v-506zM208 656q0 -32 -21.5 -53.5t-52.5 -21.5q-30 0 -51 21t-21 52q0 30 21.5 52t51.5 22t51.5 -21.5t21.5 -50.5z" />
    <glyph glyph-name="afii10106" unicode="&#x459;" horiz-adv-x="760" 
d="M454 78h63q17 0 37 3.5t35 18.5q14 14 17 30.5t3 27.5q0 12 -3.5 29.5t-17.5 31.5q-16 15 -36.5 18.5t-37.5 3.5h-60v-163zM527 319q15 0 35 -1t41 -5.5t42 -14.5t39 -28q27 -28 34 -59t7 -54q0 -43 -12.5 -69.5t-26.5 -41.5q-27 -28 -65.5 -37t-84.5 -9h-191v424h-114
l-4 -55q-2 -23 -4 -53t-5 -64l-2.5 -27.5t-3.5 -34.5t-4.5 -36t-4.5 -31q-3 -20 -11 -46t-28 -46q-12 -11 -25.5 -18t-27.5 -11t-27.5 -6t-24.5 -3l-27 -3l-22 75l22 5q12 3 26 10t23 16q23 23 27.5 63t9.5 87q3 25 4.5 45.5t3 39t2.5 38t3 42.5l6 95h317v-187h73z" />
    <glyph glyph-name="afii10107" unicode="&#x45a;" horiz-adv-x="770" 
d="M464 78h63q17 0 37 3.5t35 18.5q14 14 17 30.5t3 27.5q0 12 -3.5 29.5t-17.5 31.5q-16 15 -36.5 18.5t-37.5 3.5h-60v-163zM464 518v-199h73q15 0 35 -1t41 -5.5t42 -14.5t39 -28q27 -28 34 -59t7 -54q0 -43 -12.5 -69.5t-26.5 -41.5q-27 -28 -65.5 -37t-84.5 -9h-191
v241h-171v-241h-109v497l109 21v-199h171v178z" />
    <glyph glyph-name="afii10108" unicode="&#x45b;" horiz-adv-x="580" 
d="M391 0v334q0 17 -1.5 33.5t-14.5 30.5q-11 11 -24 13.5t-21 2.5q-18 0 -35 -5t-34 -14q-32 -17 -57 -42v-353h-109v556h-55v64h55v117l109 -17v-100h182l-23 -64h-159v-58l-2 -54q27 25 69 44q25 11 47 15t40 4q32 0 60 -10t46 -28q13 -13 20.5 -28.5t11 -30.5t4 -29.5
t0.5 -26.5v-354h-109z" />
    <glyph glyph-name="afii10109" unicode="&#x45c;" horiz-adv-x="518" 
d="M75 497l109 21v-212h47q14 0 29.5 2t26.5 13q14 14 21 47l13 57q3 14 8 29t19 29q15 16 34 21t47 8l37 4l20 -75l-25 -5l-14 -4t-14 -8q-8 -7 -11.5 -16t-6.5 -18l-16 -54q-8 -29 -25 -46q-2 -2 -12.5 -9.5t-27.5 -11.5v-2q13 -3 22 -9t15 -11q11 -11 18 -25.5t12 -28.5
l25 -75q5 -16 10.5 -23.5t8.5 -10.5q8 -8 17.5 -10.5t15.5 -4.5l20 -4l-20 -75l-34 3q-26 2 -51 6.5t-45 23.5q-15 15 -21.5 34t-9.5 33l-16 71q-3 14 -8 28t-15 22q-11 10 -24 11.5t-25 1.5h-45v-224h-109v497zM189 560l-34 63l204 132l50 -93z" />
    <glyph glyph-name="afii10110" unicode="&#x45e;" horiz-adv-x="483" 
d="M478 506l-187 -540q-10 -29 -20 -50t-19 -35.5t-16.5 -24t-13.5 -15.5q-24 -25 -52 -36.5t-68 -20.5l-36 71q37 10 55.5 21.5t28.5 22.5q9 9 24.5 32.5t28.5 68.5h-35q-14 54 -24.5 85.5t-18.5 57.5l-120 355l112 19l93 -308q3 -10 6.5 -24t7.5 -29.5t7 -31t6 -28.5h2
q8 35 18 70.5t19 65.5l84 274h118zM393 700q-13 -35 -31 -53.5t-25 -23.5q-26 -20 -53.5 -25.5t-50.5 -5.5t-50.5 5.5t-53.5 25.5q-7 5 -25 23.5t-31 53.5l55 31q4 -5 9.5 -12.5t11.5 -14.5q12 -13 32 -23t54 -10q31 0 49.5 9.5t32.5 23.5q6 7 11.5 14.5t9.5 12.5z" />
    <glyph glyph-name="afii10193" unicode="&#x45f;" horiz-adv-x="525" 
d="M450 518v-518h-138v-149h-98v149h-139v497l109 21v-436h157v415z" />
    <glyph glyph-name="afii10050" unicode="&#x490;" horiz-adv-x="471" 
d="M80 0v692h272v156h104v-250h-261v-598h-115z" />
    <glyph glyph-name="afii10098" unicode="&#x491;" horiz-adv-x="423" 
d="M184 0h-109v506h223v144h100v-226h-214v-424z" />
    <glyph glyph-name="endash" unicode="&#x2013;" horiz-adv-x="583" 
d="M50 233v87h483v-87h-483z" />
    <glyph glyph-name="emdash" unicode="&#x2014;" horiz-adv-x="809" 
d="M50 233v87h709v-87h-709z" />
    <glyph glyph-name="quoteleft" unicode="&#x2018;" horiz-adv-x="267" 
d="M222 665q-31 -10 -49.5 -29.5t-18.5 -39.5q0 -11 10 -15.5t22.5 -12t22.5 -21t10 -41.5q0 -33 -23 -56.5t-56 -23.5q-39 0 -64.5 31t-25.5 80q0 59 36 108t96 70z" />
    <glyph glyph-name="quoteright" unicode="&#x2019;" horiz-adv-x="267" 
d="M217 597q0 -63 -39 -114q-17 -21 -41.5 -38t-50.5 -26l-41 49q31 10 49.5 29.5t18.5 41.5q0 5 -7 11t-15 10q-20 8 -31.5 25t-11.5 42q0 34 23 57t56 23q39 0 64.5 -31t25.5 -79z" />
    <glyph glyph-name="quotesinglbase" unicode="&#x201a;" horiz-adv-x="267" 
d="M217 35q0 -64 -37.5 -111t-94.5 -68l-40 50q31 10 49.5 30t18.5 41q0 5 -5.5 10.5t-16.5 10.5q-20 8 -31.5 25.5t-11.5 41.5q0 34 23 57t56 23q39 0 64.5 -30.5t25.5 -79.5z" />
    <glyph glyph-name="quotedblleft" unicode="&#x201c;" horiz-adv-x="481" 
d="M222 665q-32 -9 -50.5 -28.5t-18.5 -41.5q0 -9 10.5 -14t22.5 -13t22.5 -21.5t10.5 -40.5q0 -33 -23 -56.5t-57 -23.5q-39 0 -64 31t-25 80q0 61 39 112q17 21 41 38.5t51 27.5zM436 665q-31 -9 -49.5 -28.5t-18.5 -41.5q0 -8 10 -13.5t23 -13.5q12 -7 22.5 -21.5
t10.5 -40.5q0 -33 -23.5 -56.5t-56.5 -23.5q-39 0 -64 31t-25 80q0 63 38 112q17 22 41.5 39t51.5 27z" />
    <glyph glyph-name="quotedblright" unicode="&#x201d;" horiz-adv-x="482" 
d="M218 597q0 -30 -9.5 -58t-27 -51.5t-42 -41t-53.5 -27.5l-41 49q32 10 50.5 29.5t18.5 41.5q0 4 -7 11t-15 10q-43 17 -43 67q0 34 22.5 57t56.5 23q39 0 64.5 -31t25.5 -79zM432 597q0 -66 -37 -112t-94 -66l-41 49q32 10 50 29.5t18 41.5q0 4 -7 11t-14 10
q-20 8 -31.5 25t-11.5 42q0 34 22.5 57t56.5 23q39 0 64 -31t25 -79z" />
    <glyph glyph-name="quotedblbase" unicode="&#x201e;" horiz-adv-x="482" 
d="M217 35q0 -64 -37.5 -111t-94.5 -68l-40 50q31 10 49.5 30t18.5 41q0 5 -5.5 10.5t-16.5 10.5q-20 8 -31.5 25.5t-11.5 41.5q0 34 23 57t56 23q39 0 64.5 -30.5t25.5 -79.5zM432 35q0 -64 -37.5 -111t-94.5 -68l-40 50q31 10 49.5 30t18.5 41q0 5 -5.5 10.5t-16.5 10.5
q-20 8 -31.5 25.5t-11.5 41.5q0 34 23 57t56 23q39 0 64.5 -30.5t25.5 -79.5z" />
    <glyph glyph-name="dagger" unicode="&#x2020;" horiz-adv-x="476" 
d="M434 439h-143v-439h-109v439h-152v97h152v156h109v-156h160z" />
    <glyph glyph-name="daggerdbl" unicode="&#x2021;" horiz-adv-x="490" 
d="M443 438h-143v-184h152v-98h-152v-156h-109v156h-161l17 98h144v184h-152v99h152v155h109v-155h160z" />
    <glyph glyph-name="bullet" unicode="&#x2022;" horiz-adv-x="490" 
d="M420 355q0 -37 -13.5 -69t-37.5 -56t-56 -38t-68 -14t-68 14t-56 38t-37.5 56t-13.5 69t13.5 69t37.5 56t56 38t68 14t68 -14t56 -38t37.5 -56t13.5 -69z" />
    <glyph glyph-name="ellipsis" unicode="&#x2026;" horiz-adv-x="762" 
d="M217 67q0 -34 -23 -58t-55 -24q-33 0 -56 24t-23 58q0 33 22.5 56t54.5 23q33 0 56.5 -23t23.5 -56zM459 67q0 -17 -6 -32t-16.5 -26t-25 -17.5t-30.5 -6.5q-33 0 -55.5 24t-22.5 58q0 33 22.5 56t54.5 23q33 0 56 -23t23 -56zM702 67q0 -34 -23 -58t-55 -24
q-33 0 -56 24t-23 58q0 33 23 56t55 23t55.5 -23t23.5 -56z" />
    <glyph glyph-name="perthousand" unicode="&#x2030;" horiz-adv-x="1208" 
d="M1086 160q0 59 -18.5 84t-58.5 25q-42 0 -58 -27t-16 -76q0 -62 18.5 -86t57.5 -24t57 25t18 79zM1178 162q0 -81 -45.5 -126t-122.5 -45q-78 0 -122 46t-44 125q0 39 12 70.5t33.5 54t52 34.5t67.5 12q81 0 125 -46t44 -125zM713 160q0 60 -19.5 84.5t-57.5 24.5
q-41 0 -58 -27t-17 -76q0 -61 17.5 -85.5t59.5 -24.5q39 0 57 25t18 79zM804 162q0 -80 -45.5 -125.5t-121.5 -45.5q-78 0 -122 46t-44 125q0 39 12 70.5t33.5 54t52 34.5t67.5 12q80 0 124 -45.5t44 -125.5zM282 0h-79l351 692h80zM272 527q0 58 -18.5 83.5t-58.5 25.5
q-39 0 -57 -26t-18 -78q0 -59 18 -84.5t59 -25.5q39 0 57 25.5t18 79.5zM363 528q0 -80 -45 -125t-122 -45q-78 0 -122 46t-44 125q0 39 12 70.5t33.5 54t52 34.5t67.5 12q78 0 123 -44t45 -128z" />
    <glyph glyph-name="guilsinglleft" unicode="&#x2039;" horiz-adv-x="285" 
d="M181 20l-151 226l151 227l74 -50l-115 -177l115 -176z" />
    <glyph glyph-name="guilsinglright" unicode="&#x203a;" horiz-adv-x="286" 
d="M105 20l-75 50l117 176l-117 177l75 50l151 -227z" />
    <glyph glyph-name="afii61352" unicode="&#x2116;" horiz-adv-x="978" 
d="M777 634q-11 0 -20 -2.5t-17 -10.5q-16 -15 -18.5 -42t-2.5 -51q0 -26 2.5 -52.5t18.5 -41.5q8 -8 17 -10.5t20 -2.5q8 0 18.5 2t19.5 11q15 15 18 41.5t3 52.5q0 23 -3 50.5t-18 42.5q-9 9 -19.5 11t-18.5 2zM918 528q0 -12 -1 -28t-5.5 -33.5t-13 -35t-22.5 -31.5
q-12 -12 -35.5 -24.5t-62.5 -12.5q-35 0 -59 10.5t-40 26.5q-14 14 -22.5 31.5t-13 35t-5.5 33.5t-1 28q0 11 1 27t5.5 33t13 34.5t22.5 32.5q16 16 40 26.5t59 10.5q39 0 62.5 -12.5t35.5 -24.5q14 -15 22.5 -32.5t13 -34.5t5.5 -33t1 -27zM428 0l-155 325
q-14 29 -29.5 62.5t-26.5 59.5q-9 20 -17.5 40t-16.5 43l-3 -3q3 -36 4.5 -77t2.5 -107l4 -343h-111v692h130l168 -338q8 -17 14 -30t11 -24.5t9.5 -23t9.5 -24.5q8 -21 13.5 -37t11.5 -39l3 3q-1 8 -2.5 33t-3.5 54q-2 20 -3 51t-1 59l-2 316h111v-692h-121zM642 202v58
h271v-58h-271z" />
    <glyph glyph-name="trademark" unicode="&#x2122;" horiz-adv-x="985" 
d="M242 627v-331h-89v331h-123v81h335v-81h-123zM836 296v301h-5l-113 -301h-58l-112 299l-5 1v-300h-89v412h127l109 -290l108 290h127v-412h-89z" />
    <glyph glyph-name="FL180" horiz-adv-x="546" 
d="M497 37q-1 1 -8 9.5t-15 31t-8 56.5v384l-107 -22v-360q-12 -27 -41 -45.5t-59 -18.5q-17 0 -30.5 6t-22.5 16q-11 13 -14.5 32t-3.5 45v349l-108 -21v-714l110 27v146q0 11 -1 24t-2 21q11 -11 23 -14t23 -3q88 0 144 63q7 -22 17.5 -36.5t26.5 -26.5z" />
    <glyph glyph-name="hyphen" horiz-adv-x="319" 
d="M50 221v102h219v-102h-219z" />
    <glyph glyph-name="FL00A0h" horiz-adv-x="225" 
 />
    </font>
</defs>
</svg>
